<svg xmlns="http://www.w3.org/2000/svg" xmlns:xlink="http://www.w3.org/1999/xlink" width="300" zoomAndPan="magnify" viewBox="0 0 224.87999 225" height="300" preserveAspectRatio="xMidYMid meet" version="1.0"><defs><clipPath id="d4cdadb19d"><path d="M 115 185 L 172 185 L 172 195.292969 L 115 195.292969 Z M 115 185 " clip-rule="nonzero"/></clipPath><clipPath id="9ad0b7221f"><path d="M 95 29.632812 L 129 29.632812 L 129 63 L 95 63 Z M 95 29.632812 " clip-rule="nonzero"/></clipPath><clipPath id="6d3dd66718"><path d="M 22.488281 68 L 56 68 L 56 102 L 22.488281 102 Z M 22.488281 68 " clip-rule="nonzero"/></clipPath><clipPath id="f0003e9815"><path d="M 169 68 L 202.390625 68 L 202.390625 102 L 169 102 Z M 169 68 " clip-rule="nonzero"/></clipPath></defs><path fill="#d3d2d2" d="M 109.257812 170.28125 C 109.257812 172.9375 96.804688 175.089844 81.441406 175.089844 C 66.082031 175.089844 53.628906 172.9375 53.628906 170.28125 C 53.628906 167.628906 66.082031 165.480469 81.441406 165.480469 C 96.804688 165.480469 109.257812 167.628906 109.257812 170.28125 " fill-opacity="1" fill-rule="nonzero"/><g clip-path="url(#d4cdadb19d)"><path fill="#d3d2d2" d="M 171.210938 190.472656 C 171.210938 193.125 158.753906 195.277344 143.390625 195.277344 C 128.03125 195.277344 115.574219 193.125 115.574219 190.472656 C 115.574219 187.816406 128.03125 185.664062 143.390625 185.664062 C 158.753906 185.664062 171.210938 187.816406 171.210938 190.472656 " fill-opacity="1" fill-rule="nonzero"/></g><path fill="#1b181d" d="M 135.339844 154.859375 C 135.339844 155.992188 134.421875 156.910156 133.289062 156.910156 L 29.597656 156.910156 C 28.464844 156.910156 27.546875 155.992188 27.546875 154.859375 L 27.546875 84.367188 C 27.546875 83.238281 28.464844 82.320312 29.597656 82.320312 L 133.289062 82.320312 C 134.421875 82.320312 135.339844 83.238281 135.339844 84.367188 L 135.339844 154.859375 " fill-opacity="1" fill-rule="nonzero"/><path fill="#3bbec5" d="M 130.960938 151.550781 C 130.960938 151.921875 130.660156 152.222656 130.289062 152.222656 L 32.597656 152.222656 C 32.226562 152.222656 31.925781 151.921875 31.925781 151.550781 L 31.925781 87.671875 C 31.925781 87.304688 32.226562 87.003906 32.597656 87.003906 L 130.289062 87.003906 C 130.660156 87.003906 130.960938 87.304688 130.960938 87.671875 L 130.960938 151.550781 " fill-opacity="1" fill-rule="nonzero"/><path fill="#15151e" d="M 36.824219 152.222656 L 126.0625 152.222656 L 126.0625 91.984375 L 36.824219 91.984375 Z M 36.824219 152.222656 " fill-opacity="1" fill-rule="nonzero"/><path fill="#ffffff" d="M 42.199219 152.222656 L 42.652344 152.222656 L 42.652344 91.984375 L 42.199219 91.984375 Z M 42.199219 152.222656 " fill-opacity="1" fill-rule="nonzero"/><path fill="#333650" d="M 36.824219 91.960938 L 126.0625 91.960938 L 126.0625 86.992188 L 36.824219 86.992188 Z M 36.824219 91.960938 " fill-opacity="1" fill-rule="nonzero"/><path fill="#ed3947" d="M 115.441406 89.476562 C 115.441406 90.410156 114.6875 91.164062 113.753906 91.164062 C 112.824219 91.164062 112.066406 90.410156 112.066406 89.476562 C 112.066406 88.546875 112.824219 87.789062 113.753906 87.789062 C 114.6875 87.789062 115.441406 88.546875 115.441406 89.476562 " fill-opacity="1" fill-rule="nonzero"/><path fill="#80cc28" d="M 119.886719 89.476562 C 119.886719 90.410156 119.132812 91.164062 118.199219 91.164062 C 117.265625 91.164062 116.511719 90.410156 116.511719 89.476562 C 116.511719 88.546875 117.265625 87.789062 118.199219 87.789062 C 119.132812 87.789062 119.886719 88.546875 119.886719 89.476562 " fill-opacity="1" fill-rule="nonzero"/><path fill="#ebb72e" d="M 124.292969 89.476562 C 124.292969 90.410156 123.535156 91.164062 122.605469 91.164062 C 121.671875 91.164062 120.917969 90.410156 120.917969 89.476562 C 120.917969 88.546875 121.671875 87.789062 122.605469 87.789062 C 123.535156 87.789062 124.292969 88.546875 124.292969 89.476562 " fill-opacity="1" fill-rule="nonzero"/><path fill="#ffffff" d="M 38.144531 94.289062 L 41.105469 94.289062 L 41.105469 93.386719 L 38.144531 93.386719 Z M 38.144531 94.289062 " fill-opacity="1" fill-rule="nonzero"/><path fill="#ffffff" d="M 38.144531 97.253906 L 41.105469 97.253906 L 41.105469 96.347656 L 38.144531 96.347656 Z M 38.144531 97.253906 " fill-opacity="1" fill-rule="nonzero"/><path fill="#ffffff" d="M 38.144531 100.214844 L 41.105469 100.214844 L 41.105469 99.308594 L 38.144531 99.308594 Z M 38.144531 100.214844 " fill-opacity="1" fill-rule="nonzero"/><path fill="#ffffff" d="M 38.144531 103.175781 L 41.105469 103.175781 L 41.105469 102.273438 L 38.144531 102.273438 Z M 38.144531 103.175781 " fill-opacity="1" fill-rule="nonzero"/><path fill="#ffffff" d="M 38.144531 106.140625 L 41.105469 106.140625 L 41.105469 105.234375 L 38.144531 105.234375 Z M 38.144531 106.140625 " fill-opacity="1" fill-rule="nonzero"/><path fill="#ffffff" d="M 38.144531 109.101562 L 41.105469 109.101562 L 41.105469 108.195312 L 38.144531 108.195312 Z M 38.144531 109.101562 " fill-opacity="1" fill-rule="nonzero"/><path fill="#ffffff" d="M 38.144531 112.0625 L 41.105469 112.0625 L 41.105469 111.160156 L 38.144531 111.160156 Z M 38.144531 112.0625 " fill-opacity="1" fill-rule="nonzero"/><path fill="#ffffff" d="M 38.144531 115.027344 L 41.105469 115.027344 L 41.105469 114.121094 L 38.144531 114.121094 Z M 38.144531 115.027344 " fill-opacity="1" fill-rule="nonzero"/><path fill="#ffffff" d="M 38.144531 117.988281 L 41.105469 117.988281 L 41.105469 117.082031 L 38.144531 117.082031 Z M 38.144531 117.988281 " fill-opacity="1" fill-rule="nonzero"/><path fill="#ffffff" d="M 38.144531 120.949219 L 41.105469 120.949219 L 41.105469 120.046875 L 38.144531 120.046875 Z M 38.144531 120.949219 " fill-opacity="1" fill-rule="nonzero"/><path fill="#ffffff" d="M 38.144531 123.914062 L 41.105469 123.914062 L 41.105469 123.007812 L 38.144531 123.007812 Z M 38.144531 123.914062 " fill-opacity="1" fill-rule="nonzero"/><path fill="#ffffff" d="M 38.144531 126.875 L 41.105469 126.875 L 41.105469 125.972656 L 38.144531 125.972656 Z M 38.144531 126.875 " fill-opacity="1" fill-rule="nonzero"/><path fill="#ffffff" d="M 38.144531 129.839844 L 41.105469 129.839844 L 41.105469 128.933594 L 38.144531 128.933594 Z M 38.144531 129.839844 " fill-opacity="1" fill-rule="nonzero"/><path fill="#ffffff" d="M 38.144531 132.804688 L 41.105469 132.804688 L 41.105469 131.898438 L 38.144531 131.898438 Z M 38.144531 132.804688 " fill-opacity="1" fill-rule="nonzero"/><path fill="#ffffff" d="M 38.144531 135.765625 L 41.105469 135.765625 L 41.105469 134.859375 L 38.144531 134.859375 Z M 38.144531 135.765625 " fill-opacity="1" fill-rule="nonzero"/><path fill="#ffffff" d="M 38.144531 138.730469 L 41.105469 138.730469 L 41.105469 137.824219 L 38.144531 137.824219 Z M 38.144531 138.730469 " fill-opacity="1" fill-rule="nonzero"/><path fill="#ffffff" d="M 38.144531 141.6875 L 41.105469 141.6875 L 41.105469 140.785156 L 38.144531 140.785156 Z M 38.144531 141.6875 " fill-opacity="1" fill-rule="nonzero"/><path fill="#ffffff" d="M 38.144531 144.652344 L 41.105469 144.652344 L 41.105469 143.746094 L 38.144531 143.746094 Z M 38.144531 144.652344 " fill-opacity="1" fill-rule="nonzero"/><path fill="#ffffff" d="M 38.144531 147.617188 L 41.105469 147.617188 L 41.105469 146.707031 L 38.144531 146.707031 Z M 38.144531 147.617188 " fill-opacity="1" fill-rule="nonzero"/><path fill="#ffffff" d="M 38.144531 150.578125 L 41.105469 150.578125 L 41.105469 149.671875 L 38.144531 149.671875 Z M 38.144531 150.578125 " fill-opacity="1" fill-rule="nonzero"/><path fill="#ed3947" d="M 44.234375 94.289062 L 55.761719 94.289062 L 55.761719 93.386719 L 44.234375 93.386719 Z M 44.234375 94.289062 " fill-opacity="1" fill-rule="nonzero"/><path fill="#ed3947" d="M 56.21875 127.332031 L 67.742188 127.332031 L 67.742188 126.425781 L 56.21875 126.425781 Z M 56.21875 127.332031 " fill-opacity="1" fill-rule="nonzero"/><path fill="#ed3947" d="M 56.21875 123.914062 L 60.582031 123.914062 L 60.582031 123.007812 L 56.21875 123.007812 Z M 56.21875 123.914062 " fill-opacity="1" fill-rule="nonzero"/><path fill="#3bbec5" d="M 44.234375 97.253906 L 48.597656 97.253906 L 48.597656 96.347656 L 44.234375 96.347656 Z M 44.234375 97.253906 " fill-opacity="1" fill-rule="nonzero"/><path fill="#3bbec5" d="M 44.234375 100.214844 L 50.699219 100.214844 L 50.699219 99.308594 L 44.234375 99.308594 Z M 44.234375 100.214844 " fill-opacity="1" fill-rule="nonzero"/><path fill="#ffffff" d="M 51.808594 103.175781 L 64.773438 103.175781 L 64.773438 102.273438 L 51.808594 102.273438 Z M 51.808594 103.175781 " fill-opacity="1" fill-rule="nonzero"/><path fill="#ffffff" d="M 71.320312 103.175781 L 90.085938 103.175781 L 90.085938 102.273438 L 71.320312 102.273438 Z M 71.320312 103.175781 " fill-opacity="1" fill-rule="nonzero"/><path fill="#ffffff" d="M 69.339844 103.175781 L 66.007812 103.175781 L 66.007812 102.273438 L 69.339844 102.273438 L 69.339844 103.175781 " fill-opacity="1" fill-rule="nonzero"/><path fill="#ffffff" d="M 54.648438 108.648438 L 67.613281 108.648438 L 67.613281 107.746094 L 54.648438 107.746094 Z M 54.648438 108.648438 " fill-opacity="1" fill-rule="nonzero"/><path fill="#ffffff" d="M 74.160156 108.648438 L 92.929688 108.648438 L 92.929688 107.746094 L 74.160156 107.746094 Z M 74.160156 108.648438 " fill-opacity="1" fill-rule="nonzero"/><path fill="#ffffff" d="M 72.183594 108.648438 L 68.847656 108.648438 L 68.847656 107.746094 L 72.183594 107.746094 L 72.183594 108.648438 " fill-opacity="1" fill-rule="nonzero"/><path fill="#ffffff" d="M 54.648438 105.6875 L 62.921875 105.6875 L 62.921875 104.78125 L 54.648438 104.78125 Z M 54.648438 105.6875 " fill-opacity="1" fill-rule="nonzero"/><path fill="#ffffff" d="M 64.40625 104.78125 L 64.40625 105.6875 L 67.613281 105.6875 L 67.613281 104.78125 L 64.40625 104.78125 " fill-opacity="1" fill-rule="nonzero"/><path fill="#ffffff" d="M 80.703125 105.6875 L 74.160156 105.6875 L 74.160156 104.78125 L 80.703125 104.78125 L 80.703125 105.6875 " fill-opacity="1" fill-rule="nonzero"/><path fill="#ffffff" d="M 72.183594 105.6875 L 68.847656 105.6875 L 68.847656 104.78125 L 72.183594 104.78125 L 72.183594 105.6875 " fill-opacity="1" fill-rule="nonzero"/><path fill="#ffffff" d="M 65.226562 137.472656 L 73.5 137.472656 L 73.5 136.570312 L 65.226562 136.570312 Z M 65.226562 137.472656 " fill-opacity="1" fill-rule="nonzero"/><path fill="#ffffff" d="M 74.980469 137.472656 L 78.191406 137.472656 L 78.191406 136.570312 L 74.980469 136.570312 Z M 74.980469 137.472656 " fill-opacity="1" fill-rule="nonzero"/><path fill="#ffffff" d="M 84.738281 137.472656 L 91.28125 137.472656 L 91.28125 136.570312 L 84.738281 136.570312 Z M 84.738281 137.472656 " fill-opacity="1" fill-rule="nonzero"/><path fill="#ffffff" d="M 79.429688 137.472656 L 82.761719 137.472656 L 82.761719 136.570312 L 79.429688 136.570312 Z M 79.429688 137.472656 " fill-opacity="1" fill-rule="nonzero"/><path fill="#00adef" d="M 51.808594 100.214844 L 54.03125 100.214844 L 54.03125 99.308594 L 51.808594 99.308594 Z M 51.808594 100.214844 " fill-opacity="1" fill-rule="nonzero"/><path fill="#3bbec5" d="M 56.300781 129.839844 L 60.664062 129.839844 L 60.664062 128.933594 L 56.300781 128.933594 Z M 56.300781 129.839844 " fill-opacity="1" fill-rule="nonzero"/><path fill="#3bbec5" d="M 56.300781 132.804688 L 62.765625 132.804688 L 62.765625 131.898438 L 56.300781 131.898438 Z M 56.300781 132.804688 " fill-opacity="1" fill-rule="nonzero"/><path fill="#00adef" d="M 63.875 132.804688 L 66.097656 132.804688 L 66.097656 131.898438 L 63.875 131.898438 Z M 63.875 132.804688 " fill-opacity="1" fill-rule="nonzero"/><path fill="#3bbec5" d="M 56.300781 145.683594 L 60.664062 145.683594 L 60.664062 144.777344 L 56.300781 144.777344 Z M 56.300781 145.683594 " fill-opacity="1" fill-rule="nonzero"/><path fill="#3bbec5" d="M 56.300781 148.640625 L 62.765625 148.640625 L 62.765625 147.738281 L 56.300781 147.738281 Z M 56.300781 148.640625 " fill-opacity="1" fill-rule="nonzero"/><path fill="#00adef" d="M 63.875 148.640625 L 66.097656 148.640625 L 66.097656 147.738281 L 63.875 147.738281 Z M 63.875 148.640625 " fill-opacity="1" fill-rule="nonzero"/><path fill="#3bbec5" d="M 44.234375 115.027344 L 50.699219 115.027344 L 50.699219 114.121094 L 44.234375 114.121094 Z M 44.234375 115.027344 " fill-opacity="1" fill-rule="nonzero"/><path fill="#00adef" d="M 51.808594 115.027344 L 54.03125 115.027344 L 54.03125 114.121094 L 51.808594 114.121094 Z M 51.808594 115.027344 " fill-opacity="1" fill-rule="nonzero"/><path fill="#80cc28" d="M 60.371094 94.289062 L 57.40625 94.289062 L 57.40625 93.386719 L 60.371094 93.386719 L 60.371094 94.289062 " fill-opacity="1" fill-rule="nonzero"/><path fill="#80cc28" d="M 51.808594 118.894531 L 64.40625 118.894531 L 64.40625 117.988281 L 51.808594 117.988281 Z M 51.808594 118.894531 " fill-opacity="1" fill-rule="nonzero"/><path fill="#ffffff" d="M 54.648438 112.0625 L 73.664062 112.0625 L 73.664062 111.160156 L 54.648438 111.160156 Z M 54.648438 112.0625 " fill-opacity="1" fill-rule="nonzero"/><path fill="#ffffff" d="M 74.777344 112.0625 L 89.347656 112.0625 L 89.347656 111.160156 L 74.777344 111.160156 Z M 74.777344 112.0625 " fill-opacity="1" fill-rule="nonzero"/><path fill="#ffffff" d="M 65.226562 140.785156 L 76.257812 140.785156 L 76.257812 139.878906 L 65.226562 139.878906 Z M 65.226562 140.785156 " fill-opacity="1" fill-rule="nonzero"/><path fill="#ffffff" d="M 77.410156 140.785156 L 92.886719 140.785156 L 92.886719 139.878906 L 77.410156 139.878906 Z M 77.410156 140.785156 " fill-opacity="1" fill-rule="nonzero"/><path fill="#ffffff" d="M 65.226562 143.746094 L 70.003906 143.746094 L 70.003906 142.84375 L 65.226562 142.84375 Z M 65.226562 143.746094 " fill-opacity="1" fill-rule="nonzero"/><path fill="#ffffff" d="M 71.402344 143.746094 L 76.257812 143.746094 L 76.257812 142.84375 L 71.402344 142.84375 Z M 71.402344 143.746094 " fill-opacity="1" fill-rule="nonzero"/><path fill="#ffffff" d="M 90.085938 143.746094 L 92.886719 143.746094 L 92.886719 142.84375 L 90.085938 142.84375 Z M 90.085938 143.746094 " fill-opacity="1" fill-rule="nonzero"/><path fill="#ffffff" d="M 77.410156 143.746094 L 89.015625 143.746094 L 89.015625 142.84375 L 77.410156 142.84375 Z M 77.410156 143.746094 " fill-opacity="1" fill-rule="nonzero"/><path fill="#352f38" d="M 89.496094 156.910156 L 29.597656 156.910156 C 28.464844 156.910156 27.546875 155.992188 27.546875 154.859375 L 27.546875 84.367188 C 27.546875 84.367188 27.546875 84.363281 27.546875 84.363281 C 27.546875 83.800781 27.777344 83.289062 28.148438 82.917969 L 34.09375 87.003906 L 32.597656 87.003906 C 32.226562 87.003906 31.925781 87.304688 31.925781 87.671875 L 31.925781 151.550781 C 31.925781 151.921875 32.226562 152.222656 32.597656 152.222656 L 89.496094 152.222656 L 89.496094 156.910156 " fill-opacity="1" fill-rule="nonzero"/><path fill="#62cbcd" d="M 36.824219 152.222656 L 32.597656 152.222656 C 32.226562 152.222656 31.925781 151.921875 31.925781 151.550781 L 31.925781 87.671875 C 31.925781 87.304688 32.226562 87.003906 32.597656 87.003906 L 34.09375 87.003906 L 36.824219 88.882812 L 36.824219 91.960938 L 41.308594 91.960938 L 41.34375 91.984375 L 36.824219 91.984375 L 36.824219 152.222656 " fill-opacity="1" fill-rule="nonzero"/><path fill="#2f2d3b" d="M 89.496094 152.222656 L 42.652344 152.222656 L 42.652344 92.882812 L 44.234375 93.972656 L 44.234375 94.289062 L 44.699219 94.289062 L 47.695312 96.347656 L 44.234375 96.347656 L 44.234375 97.253906 L 48.597656 97.253906 L 48.597656 96.96875 L 52.003906 99.308594 L 51.808594 99.308594 L 51.808594 100.214844 L 53.324219 100.214844 L 56.320312 102.273438 L 51.808594 102.273438 L 51.808594 103.175781 L 57.636719 103.175781 L 59.972656 104.78125 L 54.648438 104.78125 L 54.648438 105.6875 L 61.289062 105.6875 L 64.285156 107.746094 L 54.648438 107.746094 L 54.648438 108.648438 L 65.601562 108.648438 L 69.253906 111.160156 L 54.648438 111.160156 L 54.648438 112.0625 L 70.570312 112.0625 L 89.496094 125.0625 L 89.496094 136.570312 L 84.738281 136.570312 L 84.738281 137.472656 L 89.496094 137.472656 L 89.496094 139.878906 L 77.410156 139.878906 L 77.410156 140.785156 L 89.496094 140.785156 L 89.496094 152.222656 M 63.875 147.738281 L 63.875 148.640625 L 66.097656 148.640625 L 66.097656 147.738281 L 63.875 147.738281 M 56.300781 147.738281 L 56.300781 148.640625 L 62.765625 148.640625 L 62.765625 147.738281 L 56.300781 147.738281 M 56.300781 144.777344 L 56.300781 145.683594 L 60.664062 145.683594 L 60.664062 144.777344 L 56.300781 144.777344 M 77.410156 142.84375 L 77.410156 143.746094 L 89.015625 143.746094 L 89.015625 142.84375 L 77.410156 142.84375 M 71.402344 142.84375 L 71.402344 143.746094 L 76.257812 143.746094 L 76.257812 142.84375 L 71.402344 142.84375 M 65.226562 142.84375 L 65.226562 143.746094 L 70.003906 143.746094 L 70.003906 142.84375 L 65.226562 142.84375 M 65.226562 139.878906 L 65.226562 140.785156 L 76.257812 140.785156 L 76.257812 139.878906 L 65.226562 139.878906 M 79.429688 136.570312 L 79.429688 137.472656 L 82.761719 137.472656 L 82.761719 136.570312 L 79.429688 136.570312 M 74.980469 136.570312 L 74.980469 137.472656 L 78.191406 137.472656 L 78.191406 136.570312 L 74.980469 136.570312 M 65.226562 136.570312 L 65.226562 137.472656 L 73.5 137.472656 L 73.5 136.570312 L 65.226562 136.570312 M 63.875 131.898438 L 63.875 132.804688 L 66.097656 132.804688 L 66.097656 131.898438 L 63.875 131.898438 M 56.300781 131.898438 L 56.300781 132.804688 L 62.765625 132.804688 L 62.765625 131.898438 L 56.300781 131.898438 M 56.300781 128.933594 L 56.300781 129.839844 L 60.664062 129.839844 L 60.664062 128.933594 L 56.300781 128.933594 M 56.21875 126.425781 L 56.21875 127.332031 L 67.742188 127.332031 L 67.742188 126.425781 L 56.21875 126.425781 M 56.21875 123.007812 L 56.21875 123.914062 L 60.582031 123.914062 L 60.582031 123.007812 L 56.21875 123.007812 M 51.808594 117.988281 L 51.808594 118.894531 L 64.40625 118.894531 L 64.40625 117.988281 L 51.808594 117.988281 M 51.808594 114.121094 L 51.808594 115.027344 L 54.03125 115.027344 L 54.03125 114.121094 L 51.808594 114.121094 M 44.234375 114.121094 L 44.234375 115.027344 L 50.699219 115.027344 L 50.699219 114.121094 L 44.234375 114.121094 M 44.234375 99.308594 L 44.234375 100.214844 L 50.699219 100.214844 L 50.699219 99.308594 L 44.234375 99.308594 M 42.199219 152.222656 L 36.824219 152.222656 L 36.824219 91.984375 L 41.34375 91.984375 L 42.199219 92.574219 L 42.199219 152.222656 M 38.144531 149.671875 L 38.144531 150.578125 L 41.105469 150.578125 L 41.105469 149.671875 L 38.144531 149.671875 M 38.144531 146.707031 L 38.144531 147.617188 L 41.105469 147.617188 L 41.105469 146.707031 L 38.144531 146.707031 M 38.144531 143.746094 L 38.144531 144.652344 L 41.105469 144.652344 L 41.105469 143.746094 L 38.144531 143.746094 M 38.144531 140.785156 L 38.144531 141.6875 L 41.105469 141.6875 L 41.105469 140.785156 L 38.144531 140.785156 M 38.144531 137.824219 L 38.144531 138.730469 L 41.105469 138.730469 L 41.105469 137.824219 L 38.144531 137.824219 M 38.144531 134.859375 L 38.144531 135.765625 L 41.105469 135.765625 L 41.105469 134.859375 L 38.144531 134.859375 M 38.144531 131.898438 L 38.144531 132.804688 L 41.105469 132.804688 L 41.105469 131.898438 L 38.144531 131.898438 M 38.144531 128.933594 L 38.144531 129.839844 L 41.105469 129.839844 L 41.105469 128.933594 L 38.144531 128.933594 M 38.144531 125.972656 L 38.144531 126.875 L 41.105469 126.875 L 41.105469 125.972656 L 38.144531 125.972656 M 38.144531 123.007812 L 38.144531 123.914062 L 41.105469 123.914062 L 41.105469 123.007812 L 38.144531 123.007812 M 38.144531 120.046875 L 38.144531 120.949219 L 41.105469 120.949219 L 41.105469 120.046875 L 38.144531 120.046875 M 38.144531 117.082031 L 38.144531 117.988281 L 41.105469 117.988281 L 41.105469 117.082031 L 38.144531 117.082031 M 38.144531 114.121094 L 38.144531 115.027344 L 41.105469 115.027344 L 41.105469 114.121094 L 38.144531 114.121094 M 38.144531 111.160156 L 38.144531 112.0625 L 41.105469 112.0625 L 41.105469 111.160156 L 38.144531 111.160156 M 38.144531 108.195312 L 38.144531 109.101562 L 41.105469 109.101562 L 41.105469 108.195312 L 38.144531 108.195312 M 38.144531 105.234375 L 38.144531 106.140625 L 41.105469 106.140625 L 41.105469 105.234375 L 38.144531 105.234375 M 38.144531 102.273438 L 38.144531 103.175781 L 41.105469 103.175781 L 41.105469 102.273438 L 38.144531 102.273438 M 38.144531 99.308594 L 38.144531 100.214844 L 41.105469 100.214844 L 41.105469 99.308594 L 38.144531 99.308594 M 38.144531 96.347656 L 38.144531 97.253906 L 41.105469 97.253906 L 41.105469 96.347656 L 38.144531 96.347656 M 38.144531 93.386719 L 38.144531 94.289062 L 41.105469 94.289062 L 41.105469 93.386719 L 38.144531 93.386719 " fill-opacity="1" fill-rule="nonzero"/><path fill="#ffffff" d="M 42.652344 152.222656 L 42.199219 152.222656 L 42.199219 92.574219 L 42.652344 92.882812 L 42.652344 152.222656 " fill-opacity="1" fill-rule="nonzero"/><path fill="#4e4d67" d="M 41.308594 91.960938 L 36.824219 91.960938 L 36.824219 88.882812 L 41.308594 91.960938 " fill-opacity="1" fill-rule="nonzero"/><path fill="#ffffff" d="M 38.144531 94.289062 L 41.105469 94.289062 L 41.105469 93.386719 L 38.144531 93.386719 Z M 38.144531 94.289062 " fill-opacity="1" fill-rule="nonzero"/><path fill="#ffffff" d="M 38.144531 97.253906 L 41.105469 97.253906 L 41.105469 96.347656 L 38.144531 96.347656 Z M 38.144531 97.253906 " fill-opacity="1" fill-rule="nonzero"/><path fill="#ffffff" d="M 38.144531 100.214844 L 41.105469 100.214844 L 41.105469 99.308594 L 38.144531 99.308594 Z M 38.144531 100.214844 " fill-opacity="1" fill-rule="nonzero"/><path fill="#ffffff" d="M 38.144531 103.175781 L 41.105469 103.175781 L 41.105469 102.273438 L 38.144531 102.273438 Z M 38.144531 103.175781 " fill-opacity="1" fill-rule="nonzero"/><path fill="#ffffff" d="M 38.144531 106.140625 L 41.105469 106.140625 L 41.105469 105.234375 L 38.144531 105.234375 Z M 38.144531 106.140625 " fill-opacity="1" fill-rule="nonzero"/><path fill="#ffffff" d="M 38.144531 109.101562 L 41.105469 109.101562 L 41.105469 108.195312 L 38.144531 108.195312 Z M 38.144531 109.101562 " fill-opacity="1" fill-rule="nonzero"/><path fill="#ffffff" d="M 38.144531 112.0625 L 41.105469 112.0625 L 41.105469 111.160156 L 38.144531 111.160156 Z M 38.144531 112.0625 " fill-opacity="1" fill-rule="nonzero"/><path fill="#ffffff" d="M 38.144531 115.027344 L 41.105469 115.027344 L 41.105469 114.121094 L 38.144531 114.121094 Z M 38.144531 115.027344 " fill-opacity="1" fill-rule="nonzero"/><path fill="#ffffff" d="M 38.144531 117.988281 L 41.105469 117.988281 L 41.105469 117.082031 L 38.144531 117.082031 Z M 38.144531 117.988281 " fill-opacity="1" fill-rule="nonzero"/><path fill="#ffffff" d="M 38.144531 120.949219 L 41.105469 120.949219 L 41.105469 120.046875 L 38.144531 120.046875 Z M 38.144531 120.949219 " fill-opacity="1" fill-rule="nonzero"/><path fill="#ffffff" d="M 38.144531 123.914062 L 41.105469 123.914062 L 41.105469 123.007812 L 38.144531 123.007812 Z M 38.144531 123.914062 " fill-opacity="1" fill-rule="nonzero"/><path fill="#ffffff" d="M 38.144531 126.875 L 41.105469 126.875 L 41.105469 125.972656 L 38.144531 125.972656 Z M 38.144531 126.875 " fill-opacity="1" fill-rule="nonzero"/><path fill="#ffffff" d="M 38.144531 129.839844 L 41.105469 129.839844 L 41.105469 128.933594 L 38.144531 128.933594 Z M 38.144531 129.839844 " fill-opacity="1" fill-rule="nonzero"/><path fill="#ffffff" d="M 38.144531 132.804688 L 41.105469 132.804688 L 41.105469 131.898438 L 38.144531 131.898438 Z M 38.144531 132.804688 " fill-opacity="1" fill-rule="nonzero"/><path fill="#ffffff" d="M 38.144531 135.765625 L 41.105469 135.765625 L 41.105469 134.859375 L 38.144531 134.859375 Z M 38.144531 135.765625 " fill-opacity="1" fill-rule="nonzero"/><path fill="#ffffff" d="M 38.144531 138.730469 L 41.105469 138.730469 L 41.105469 137.824219 L 38.144531 137.824219 Z M 38.144531 138.730469 " fill-opacity="1" fill-rule="nonzero"/><path fill="#ffffff" d="M 38.144531 141.6875 L 41.105469 141.6875 L 41.105469 140.785156 L 38.144531 140.785156 Z M 38.144531 141.6875 " fill-opacity="1" fill-rule="nonzero"/><path fill="#ffffff" d="M 38.144531 144.652344 L 41.105469 144.652344 L 41.105469 143.746094 L 38.144531 143.746094 Z M 38.144531 144.652344 " fill-opacity="1" fill-rule="nonzero"/><path fill="#ffffff" d="M 38.144531 147.617188 L 41.105469 147.617188 L 41.105469 146.707031 L 38.144531 146.707031 Z M 38.144531 147.617188 " fill-opacity="1" fill-rule="nonzero"/><path fill="#ffffff" d="M 38.144531 150.578125 L 41.105469 150.578125 L 41.105469 149.671875 L 38.144531 149.671875 Z M 38.144531 150.578125 " fill-opacity="1" fill-rule="nonzero"/><path fill="#f05d5e" d="M 44.699219 94.289062 L 44.234375 94.289062 L 44.234375 93.972656 L 44.699219 94.289062 " fill-opacity="1" fill-rule="nonzero"/><path fill="#f05d5e" d="M 56.21875 127.332031 L 67.742188 127.332031 L 67.742188 126.425781 L 56.21875 126.425781 Z M 56.21875 127.332031 " fill-opacity="1" fill-rule="nonzero"/><path fill="#f05d5e" d="M 56.21875 123.914062 L 60.582031 123.914062 L 60.582031 123.007812 L 56.21875 123.007812 Z M 56.21875 123.914062 " fill-opacity="1" fill-rule="nonzero"/><path fill="#62cbcd" d="M 48.597656 97.253906 L 44.234375 97.253906 L 44.234375 96.347656 L 47.695312 96.347656 L 48.597656 96.96875 L 48.597656 97.253906 " fill-opacity="1" fill-rule="nonzero"/><path fill="#62cbcd" d="M 44.234375 100.214844 L 50.699219 100.214844 L 50.699219 99.308594 L 44.234375 99.308594 Z M 44.234375 100.214844 " fill-opacity="1" fill-rule="nonzero"/><path fill="#ffffff" d="M 57.636719 103.175781 L 51.808594 103.175781 L 51.808594 102.273438 L 56.320312 102.273438 L 57.636719 103.175781 " fill-opacity="1" fill-rule="nonzero"/><path fill="#ffffff" d="M 65.601562 108.648438 L 54.648438 108.648438 L 54.648438 107.746094 L 64.285156 107.746094 L 65.601562 108.648438 " fill-opacity="1" fill-rule="nonzero"/><path fill="#ffffff" d="M 61.289062 105.6875 L 54.648438 105.6875 L 54.648438 104.78125 L 59.972656 104.78125 L 61.289062 105.6875 " fill-opacity="1" fill-rule="nonzero"/><path fill="#ffffff" d="M 65.226562 137.472656 L 73.5 137.472656 L 73.5 136.570312 L 65.226562 136.570312 Z M 65.226562 137.472656 " fill-opacity="1" fill-rule="nonzero"/><path fill="#ffffff" d="M 74.980469 137.472656 L 78.191406 137.472656 L 78.191406 136.570312 L 74.980469 136.570312 Z M 74.980469 137.472656 " fill-opacity="1" fill-rule="nonzero"/><path fill="#ffffff" d="M 84.738281 137.472656 L 89.496094 137.472656 L 89.496094 136.570312 L 84.738281 136.570312 Z M 84.738281 137.472656 " fill-opacity="1" fill-rule="nonzero"/><path fill="#ffffff" d="M 79.429688 137.472656 L 82.761719 137.472656 L 82.761719 136.570312 L 79.429688 136.570312 Z M 79.429688 137.472656 " fill-opacity="1" fill-rule="nonzero"/><path fill="#33bdf2" d="M 53.324219 100.214844 L 51.808594 100.214844 L 51.808594 99.308594 L 52.003906 99.308594 L 53.324219 100.214844 " fill-opacity="1" fill-rule="nonzero"/><path fill="#62cbcd" d="M 56.300781 129.839844 L 60.664062 129.839844 L 60.664062 128.933594 L 56.300781 128.933594 Z M 56.300781 129.839844 " fill-opacity="1" fill-rule="nonzero"/><path fill="#62cbcd" d="M 56.300781 132.804688 L 62.765625 132.804688 L 62.765625 131.898438 L 56.300781 131.898438 Z M 56.300781 132.804688 " fill-opacity="1" fill-rule="nonzero"/><path fill="#33bdf2" d="M 63.875 132.804688 L 66.097656 132.804688 L 66.097656 131.898438 L 63.875 131.898438 Z M 63.875 132.804688 " fill-opacity="1" fill-rule="nonzero"/><path fill="#62cbcd" d="M 56.300781 145.683594 L 60.664062 145.683594 L 60.664062 144.777344 L 56.300781 144.777344 Z M 56.300781 145.683594 " fill-opacity="1" fill-rule="nonzero"/><path fill="#62cbcd" d="M 56.300781 148.640625 L 62.765625 148.640625 L 62.765625 147.738281 L 56.300781 147.738281 Z M 56.300781 148.640625 " fill-opacity="1" fill-rule="nonzero"/><path fill="#33bdf2" d="M 63.875 148.640625 L 66.097656 148.640625 L 66.097656 147.738281 L 63.875 147.738281 Z M 63.875 148.640625 " fill-opacity="1" fill-rule="nonzero"/><path fill="#62cbcd" d="M 44.234375 115.027344 L 50.699219 115.027344 L 50.699219 114.121094 L 44.234375 114.121094 Z M 44.234375 115.027344 " fill-opacity="1" fill-rule="nonzero"/><path fill="#33bdf2" d="M 51.808594 115.027344 L 54.03125 115.027344 L 54.03125 114.121094 L 51.808594 114.121094 Z M 51.808594 115.027344 " fill-opacity="1" fill-rule="nonzero"/><path fill="#99d64b" d="M 51.808594 118.894531 L 64.40625 118.894531 L 64.40625 117.988281 L 51.808594 117.988281 Z M 51.808594 118.894531 " fill-opacity="1" fill-rule="nonzero"/><path fill="#ffffff" d="M 70.570312 112.0625 L 54.648438 112.0625 L 54.648438 111.160156 L 69.253906 111.160156 L 70.570312 112.0625 " fill-opacity="1" fill-rule="nonzero"/><path fill="#ffffff" d="M 65.226562 140.785156 L 76.257812 140.785156 L 76.257812 139.878906 L 65.226562 139.878906 Z M 65.226562 140.785156 " fill-opacity="1" fill-rule="nonzero"/><path fill="#ffffff" d="M 77.410156 140.785156 L 89.496094 140.785156 L 89.496094 139.878906 L 77.410156 139.878906 Z M 77.410156 140.785156 " fill-opacity="1" fill-rule="nonzero"/><path fill="#ffffff" d="M 65.226562 143.746094 L 70.003906 143.746094 L 70.003906 142.84375 L 65.226562 142.84375 Z M 65.226562 143.746094 " fill-opacity="1" fill-rule="nonzero"/><path fill="#ffffff" d="M 71.402344 143.746094 L 76.257812 143.746094 L 76.257812 142.84375 L 71.402344 142.84375 Z M 71.402344 143.746094 " fill-opacity="1" fill-rule="nonzero"/><path fill="#ffffff" d="M 77.410156 143.746094 L 89.015625 143.746094 L 89.015625 142.84375 L 77.410156 142.84375 Z M 77.410156 143.746094 " fill-opacity="1" fill-rule="nonzero"/><path fill="#918f8f" d="M 68.070312 165.691406 L 94.8125 165.691406 L 94.8125 156.910156 L 68.070312 156.910156 Z M 68.070312 165.691406 " fill-opacity="1" fill-rule="nonzero"/><path fill="#6e6b6c" d="M 64 170.285156 L 98.886719 170.285156 L 98.886719 165.691406 L 64 165.691406 Z M 64 170.285156 " fill-opacity="1" fill-rule="nonzero"/><path fill="#1b181d" d="M 197.289062 175.261719 C 197.289062 176.394531 196.371094 177.3125 195.238281 177.3125 L 91.546875 177.3125 C 90.414062 177.3125 89.496094 176.394531 89.496094 175.261719 L 89.496094 104.773438 C 89.496094 103.640625 90.414062 102.722656 91.546875 102.722656 L 195.238281 102.722656 C 196.371094 102.722656 197.289062 103.640625 197.289062 104.773438 L 197.289062 175.261719 " fill-opacity="1" fill-rule="nonzero"/><path fill="#84d7e3" d="M 192.910156 171.957031 C 192.910156 172.324219 192.609375 172.625 192.238281 172.625 L 94.546875 172.625 C 94.175781 172.625 93.875 172.324219 93.875 171.957031 L 93.875 108.078125 C 93.875 107.707031 94.175781 107.410156 94.546875 107.410156 L 192.238281 107.410156 C 192.609375 107.410156 192.910156 107.707031 192.910156 108.078125 L 192.910156 171.957031 " fill-opacity="1" fill-rule="nonzero"/><path fill="#ffffff" d="M 195.246094 177.3125 L 195.246094 177.3125 M 195.253906 177.3125 C 195.253906 177.3125 195.253906 177.3125 195.257812 177.3125 C 195.253906 177.3125 195.253906 177.3125 195.253906 177.3125 M 195.261719 177.3125 L 195.261719 177.3125 M 195.265625 177.3125 C 195.265625 177.3125 195.269531 177.3125 195.269531 177.3125 C 195.269531 177.3125 195.265625 177.3125 195.265625 177.3125 M 195.273438 177.3125 C 195.273438 177.3125 195.277344 177.3125 195.277344 177.3125 C 195.277344 177.3125 195.273438 177.3125 195.273438 177.3125 M 195.277344 177.3125 C 195.28125 177.3125 195.28125 177.3125 195.285156 177.3125 C 195.28125 177.3125 195.28125 177.3125 195.277344 177.3125 M 195.285156 177.3125 C 195.289062 177.3125 195.289062 177.3125 195.289062 177.3125 C 195.289062 177.3125 195.289062 177.3125 195.285156 177.3125 M 195.292969 177.3125 C 195.296875 177.3125 195.296875 177.3125 195.296875 177.3125 C 195.296875 177.3125 195.296875 177.3125 195.292969 177.3125 M 195.300781 177.3125 C 195.300781 177.308594 195.304688 177.308594 195.304688 177.308594 C 195.304688 177.308594 195.300781 177.308594 195.300781 177.3125 M 195.304688 177.308594 C 195.308594 177.308594 195.3125 177.308594 195.3125 177.308594 C 195.3125 177.308594 195.308594 177.308594 195.304688 177.308594 M 195.3125 177.308594 C 195.324219 177.308594 195.332031 177.308594 195.34375 177.308594 C 195.332031 177.308594 195.324219 177.308594 195.3125 177.308594 M 195.34375 177.308594 C 195.730469 177.289062 196.085938 177.164062 196.382812 176.960938 C 196.085938 177.164062 195.730469 177.289062 195.34375 177.308594 M 196.386719 176.960938 C 196.386719 176.960938 196.386719 176.960938 196.390625 176.957031 C 196.386719 176.960938 196.386719 176.960938 196.386719 176.960938 M 196.390625 176.957031 L 196.390625 176.957031 " fill-opacity="1" fill-rule="nonzero"/><path fill="#2f2d3b" d="M 89.496094 104.773438 C 89.496094 104.773438 89.496094 104.769531 89.496094 104.765625 C 89.496094 104.769531 89.496094 104.773438 89.496094 104.773438 M 90.019531 103.40625 C 90.042969 103.378906 90.070312 103.351562 90.097656 103.324219 C 90.070312 103.351562 90.042969 103.378906 90.019531 103.40625 " fill-opacity="1" fill-rule="nonzero"/><path fill="#352f38" d="M 195.238281 177.3125 L 91.546875 177.3125 C 90.414062 177.3125 89.496094 176.394531 89.496094 175.261719 L 89.496094 104.773438 C 89.496094 104.773438 89.496094 104.769531 89.496094 104.765625 C 89.496094 104.246094 89.695312 103.769531 90.019531 103.40625 C 90.042969 103.378906 90.070312 103.351562 90.097656 103.324219 L 96.042969 107.410156 L 94.546875 107.410156 C 94.175781 107.410156 93.875 107.707031 93.875 108.078125 L 93.875 171.957031 C 93.875 172.324219 94.175781 172.625 94.546875 172.625 L 190.980469 172.625 L 196.78125 176.613281 C 196.667969 176.738281 196.539062 176.855469 196.398438 176.953125 C 196.394531 176.953125 196.394531 176.953125 196.390625 176.957031 C 196.386719 176.960938 196.386719 176.960938 196.386719 176.960938 C 196.386719 176.960938 196.386719 176.960938 196.382812 176.960938 C 196.085938 177.164062 195.730469 177.289062 195.34375 177.308594 C 195.332031 177.308594 195.324219 177.308594 195.3125 177.308594 C 195.3125 177.308594 195.308594 177.308594 195.304688 177.308594 C 195.304688 177.308594 195.300781 177.308594 195.300781 177.3125 C 195.296875 177.3125 195.296875 177.3125 195.296875 177.3125 C 195.296875 177.3125 195.296875 177.3125 195.292969 177.3125 C 195.292969 177.3125 195.292969 177.3125 195.289062 177.3125 C 195.289062 177.3125 195.289062 177.3125 195.285156 177.3125 C 195.28125 177.3125 195.28125 177.3125 195.277344 177.3125 C 195.277344 177.3125 195.273438 177.3125 195.273438 177.3125 C 195.273438 177.3125 195.269531 177.3125 195.269531 177.3125 C 195.269531 177.3125 195.265625 177.3125 195.265625 177.3125 C 195.265625 177.3125 195.261719 177.3125 195.261719 177.3125 C 195.257812 177.3125 195.257812 177.3125 195.257812 177.3125 C 195.253906 177.3125 195.253906 177.3125 195.253906 177.3125 C 195.25 177.3125 195.25 177.3125 195.246094 177.3125 C 195.242188 177.3125 195.242188 177.3125 195.238281 177.3125 " fill-opacity="1" fill-rule="nonzero"/><path fill="#9ddfe8" d="M 190.980469 172.625 L 94.546875 172.625 C 94.175781 172.625 93.875 172.324219 93.875 171.957031 L 93.875 108.078125 C 93.875 107.707031 94.175781 107.410156 94.546875 107.410156 L 96.042969 107.410156 L 116.070312 121.167969 L 116.070312 167.402344 L 170.714844 167.402344 L 170.714844 158.703125 L 190.980469 172.625 " fill-opacity="1" fill-rule="nonzero"/><path fill="#918f8f" d="M 156.761719 186.097656 L 130.019531 186.097656 L 130.019531 177.3125 L 156.761719 177.3125 L 156.761719 186.097656 " fill-opacity="1" fill-rule="nonzero"/><path fill="#6e6b6c" d="M 160.839844 190.691406 L 125.949219 190.691406 L 125.949219 186.097656 L 160.839844 186.097656 L 160.839844 190.691406 " fill-opacity="1" fill-rule="nonzero"/><path fill="#84d6e3" d="M 170.714844 158.703125 L 167.898438 156.769531 L 167.898438 115.511719 L 116.070312 115.511719 L 116.070312 121.167969 L 116.070312 111.769531 L 170.714844 111.769531 L 170.714844 158.703125 " fill-opacity="1" fill-rule="nonzero"/><path fill="#9ddfe8" d="M 170.714844 167.402344 L 116.070312 167.402344 L 116.070312 121.167969 L 116.070312 164.367188 L 167.898438 164.367188 L 167.898438 156.769531 L 170.714844 158.703125 L 170.714844 167.402344 " fill-opacity="1" fill-rule="nonzero"/><path fill="#c8dee7" d="M 116.070312 164.367188 L 167.898438 164.367188 L 167.898438 115.511719 L 116.070312 115.511719 Z M 116.070312 164.367188 " fill-opacity="1" fill-rule="nonzero"/><path fill="#9cc8da" d="M 116.070312 117.003906 L 167.898438 117.003906 L 167.898438 115.515625 L 116.070312 115.515625 Z M 116.070312 117.003906 " fill-opacity="1" fill-rule="nonzero"/><path fill="#3bbec5" d="M 167.898438 115.511719 L 116.070312 115.511719 L 116.070312 111.769531 L 167.898438 111.769531 L 167.898438 115.511719 " fill-opacity="1" fill-rule="nonzero"/><path fill="#92adba" d="M 153.269531 131.167969 C 153.269531 137.601562 148.050781 142.816406 141.613281 142.816406 C 135.179688 142.816406 129.960938 137.601562 129.960938 131.167969 C 129.960938 124.730469 135.179688 119.515625 141.613281 119.515625 C 148.050781 119.515625 153.269531 124.730469 153.269531 131.167969 " fill-opacity="1" fill-rule="nonzero"/><path fill="#ffffff" d="M 136.734375 129.871094 C 136.664062 129.882812 136.601562 129.898438 136.539062 129.925781 C 136.539062 129.925781 136.730469 129.804688 136.953125 129.875 C 136.882812 129.863281 136.808594 129.863281 136.734375 129.871094 Z M 145.757812 129.867188 C 145.757812 129.867188 145.816406 129.855469 145.914062 129.871094 C 145.859375 129.863281 145.808594 129.863281 145.757812 129.867188 Z M 146.992188 139.21875 L 142.855469 138.222656 L 142.851562 138.222656 L 142.34375 138.097656 L 142.34375 135.976562 C 142.371094 135.945312 142.605469 135.773438 144.355469 134.808594 C 144.355469 134.808594 145.167969 134.511719 145.253906 133.34375 L 145.390625 132.222656 C 145.457031 132.253906 145.523438 132.273438 145.597656 132.285156 C 146.117188 132.351562 146.609375 131.871094 146.695312 131.203125 C 146.765625 130.683594 146.566406 130.207031 146.234375 129.988281 L 146.238281 129.992188 C 146.238281 129.992188 146.257812 129.917969 146.28125 129.785156 L 146.28125 129.78125 C 146.308594 129.636719 146.34375 129.417969 146.378906 129.144531 L 146.378906 129.140625 C 146.632812 127.136719 146.785156 122.265625 142.34375 121.730469 C 142.34375 121.730469 138.554688 121.320312 138.203125 123.265625 C 138.203125 123.265625 135.960938 123.5 136.453125 129.140625 L 136.457031 129.164062 C 136.472656 129.34375 136.492188 129.527344 136.515625 129.714844 L 136.515625 129.738281 C 136.523438 129.800781 136.53125 129.863281 136.539062 129.925781 C 136.132812 130.101562 135.878906 130.625 135.957031 131.203125 C 136.042969 131.871094 136.535156 132.351562 137.054688 132.285156 C 137.125 132.273438 137.191406 132.253906 137.253906 132.226562 L 137.398438 133.34375 C 137.484375 134.511719 138.292969 134.808594 138.292969 134.808594 C 140.460938 136 140.285156 135.980469 140.285156 135.980469 L 140.308594 136 L 140.308594 138.097656 L 139.722656 138.257812 L 136.398438 139.179688 C 136.398438 139.179688 135.304688 139.453125 134.867188 140.664062 C 136.769531 142.019531 139.101562 142.816406 141.613281 142.816406 C 144.144531 142.816406 146.488281 142.007812 148.398438 140.636719 C 147.921875 139.402344 146.992188 139.21875 146.992188 139.21875 " fill-opacity="1" fill-rule="nonzero"/><path fill="#ed3947" d="M 161.84375 113.695312 C 161.84375 114.214844 161.421875 114.632812 160.902344 114.632812 C 160.386719 114.632812 159.964844 114.214844 159.964844 113.695312 C 159.964844 113.179688 160.386719 112.757812 160.902344 112.757812 C 161.421875 112.757812 161.84375 113.179688 161.84375 113.695312 " fill-opacity="1" fill-rule="nonzero"/><path fill="#80cc28" d="M 164.3125 113.695312 C 164.3125 114.214844 163.894531 114.632812 163.375 114.632812 C 162.855469 114.632812 162.4375 114.214844 162.4375 113.695312 C 162.4375 113.179688 162.855469 112.757812 163.375 112.757812 C 163.894531 112.757812 164.3125 113.179688 164.3125 113.695312 " fill-opacity="1" fill-rule="nonzero"/><path fill="#ebb72e" d="M 166.761719 113.695312 C 166.761719 114.214844 166.339844 114.632812 165.824219 114.632812 C 165.304688 114.632812 164.886719 114.214844 164.886719 113.695312 C 164.886719 113.179688 165.304688 112.757812 165.824219 112.757812 C 166.339844 112.757812 166.761719 113.179688 166.761719 113.695312 " fill-opacity="1" fill-rule="nonzero"/><path fill="#ffffff" d="M 162.675781 150.730469 L 125.40625 150.730469 L 125.40625 146.363281 L 162.675781 146.363281 L 162.675781 150.730469 " fill-opacity="1" fill-rule="nonzero"/><path fill="#ffffff" d="M 162.675781 157.714844 L 125.40625 157.714844 L 125.40625 153.347656 L 162.675781 153.347656 L 162.675781 157.714844 " fill-opacity="1" fill-rule="nonzero"/><path fill="#92adba" d="M 123.097656 156.574219 L 122.527344 156.574219 L 122.644531 155.953125 C 122.570312 155.898438 122.527344 155.816406 122.527344 155.71875 C 122.527344 155.5625 122.652344 155.433594 122.8125 155.433594 C 122.96875 155.433594 123.097656 155.5625 123.097656 155.71875 C 123.097656 155.832031 123.039062 155.925781 122.945312 155.972656 Z M 123.78125 154.667969 L 121.84375 154.667969 C 121.640625 154.667969 121.476562 154.832031 121.476562 155.035156 L 121.476562 156.972656 C 121.476562 157.171875 121.640625 157.339844 121.84375 157.339844 L 123.78125 157.339844 C 123.984375 157.339844 124.148438 157.171875 124.148438 156.972656 L 124.148438 155.035156 C 124.148438 154.832031 123.984375 154.667969 123.78125 154.667969 " fill-opacity="1" fill-rule="nonzero"/><path fill="#92adba" d="M 123.710938 154.667969 L 123.339844 154.667969 L 123.339844 153.832031 C 123.339844 153.773438 123.289062 153.726562 123.230469 153.726562 L 122.394531 153.726562 C 122.335938 153.726562 122.289062 153.773438 122.289062 153.832031 L 122.289062 154.667969 L 121.910156 154.667969 L 121.910156 153.832031 C 121.910156 153.566406 122.125 153.347656 122.394531 153.347656 L 123.230469 153.347656 C 123.5 153.347656 123.710938 153.566406 123.710938 153.832031 L 123.710938 154.667969 " fill-opacity="1" fill-rule="nonzero"/><path fill="#92adba" d="M 123.746094 147.769531 C 123.746094 148.285156 123.328125 148.703125 122.8125 148.703125 C 122.296875 148.703125 121.878906 148.285156 121.878906 147.769531 C 121.878906 147.253906 122.296875 146.835938 122.8125 146.835938 C 123.328125 146.835938 123.746094 147.253906 123.746094 147.769531 " fill-opacity="1" fill-rule="nonzero"/><path fill="#92adba" d="M 123.746094 149.046875 L 121.878906 149.046875 C 121.273438 149.148438 121.292969 149.652344 121.292969 149.652344 L 121.292969 150.257812 L 124.332031 150.257812 L 124.332031 149.652344 C 124.332031 149.652344 124.351562 149.148438 123.746094 149.046875 " fill-opacity="1" fill-rule="nonzero"/><g clip-path="url(#9ad0b7221f)"><path fill="#84d7e3" d="M 128.941406 46.332031 C 128.875 55.453125 121.425781 62.792969 112.296875 62.730469 C 103.171875 62.664062 95.828125 55.214844 95.894531 46.089844 C 95.960938 36.96875 103.410156 29.628906 112.535156 29.691406 C 121.664062 29.761719 129.007812 37.207031 128.941406 46.332031 " fill-opacity="1" fill-rule="nonzero"/></g><path fill="#1a2523" d="M 112.378906 51.582031 L 112.382812 50.90625 C 109.800781 50.886719 107.71875 48.789062 107.71875 46.210938 L 107.71875 46.195312 L 107.371094 46.195312 L 107.71875 46.21875 L 107.71875 46.195312 L 107.371094 46.195312 L 107.71875 46.21875 L 107.71875 46.179688 C 107.738281 43.59375 109.839844 41.515625 112.417969 41.515625 L 112.453125 41.515625 C 115.035156 41.535156 117.117188 43.632812 117.113281 46.210938 L 117.113281 46.261719 L 117.789062 46.25 L 117.113281 46.246094 C 117.097656 48.828125 114.996094 50.90625 112.417969 50.90625 L 112.378906 50.90625 L 112.382812 50.90625 L 112.378906 51.582031 L 112.378906 52.257812 L 112.417969 52.257812 C 115.738281 52.257812 118.441406 49.578125 118.464844 46.253906 L 118.464844 46.210938 C 118.464844 42.890625 115.789062 40.191406 112.460938 40.164062 L 112.464844 40.164062 L 112.417969 40.164062 C 109.097656 40.164062 106.394531 42.84375 106.367188 46.167969 L 107.042969 46.171875 L 106.371094 46.125 C 106.367188 46.179688 106.367188 46.207031 106.367188 46.210938 C 106.367188 49.53125 109.046875 52.234375 112.375 52.257812 L 112.378906 52.257812 Z M 122.816406 47.082031 L 123.492188 47.132812 C 123.511719 46.863281 123.527344 46.582031 123.53125 46.292969 L 123.53125 46.230469 C 123.53125 45.960938 123.519531 45.703125 123.503906 45.449219 L 123.476562 45.0625 L 123.128906 44.886719 C 122.589844 44.621094 122.222656 44.351562 122.023438 44.121094 C 121.921875 44.007812 121.855469 43.902344 121.816406 43.804688 C 121.777344 43.703125 121.757812 43.605469 121.757812 43.488281 C 121.757812 43.335938 121.792969 43.144531 121.890625 42.90625 C 121.992188 42.664062 122.148438 42.378906 122.371094 42.0625 L 122.597656 41.738281 L 122.425781 41.382812 C 122.191406 40.898438 121.925781 40.4375 121.628906 40 L 121.410156 39.671875 L 121.011719 39.703125 C 120.832031 39.722656 120.664062 39.726562 120.511719 39.726562 C 120.179688 39.726562 119.917969 39.691406 119.730469 39.632812 C 119.585938 39.589844 119.484375 39.539062 119.40625 39.476562 C 119.289062 39.386719 119.207031 39.285156 119.136719 39.101562 C 119.066406 38.914062 119.019531 38.644531 119.019531 38.28125 C 119.019531 38.109375 119.027344 37.921875 119.050781 37.714844 L 119.089844 37.320312 L 118.765625 37.09375 C 118.328125 36.789062 117.871094 36.515625 117.394531 36.277344 L 117.039062 36.097656 L 116.714844 36.320312 C 116.394531 36.539062 116.113281 36.691406 115.871094 36.785156 C 115.632812 36.878906 115.441406 36.914062 115.289062 36.914062 C 115.167969 36.914062 115.070312 36.894531 114.972656 36.855469 C 114.824219 36.792969 114.660156 36.679688 114.472656 36.464844 C 114.292969 36.25 114.09375 35.9375 113.894531 35.523438 L 113.726562 35.175781 L 113.339844 35.144531 C 113.070312 35.121094 112.789062 35.105469 112.5 35.101562 L 112.4375 35.101562 C 112.171875 35.101562 111.90625 35.113281 111.652344 35.128906 L 111.265625 35.15625 L 111.09375 35.503906 C 110.828125 36.042969 110.558594 36.410156 110.328125 36.609375 C 110.210938 36.714844 110.105469 36.773438 110.007812 36.816406 C 109.910156 36.855469 109.8125 36.875 109.695312 36.875 C 109.542969 36.875 109.347656 36.835938 109.109375 36.738281 C 108.867188 36.644531 108.585938 36.484375 108.265625 36.257812 L 107.941406 36.035156 L 107.585938 36.207031 C 107.101562 36.4375 106.640625 36.703125 106.203125 37 L 105.875 37.222656 L 105.90625 37.617188 C 105.921875 37.800781 105.929688 37.96875 105.929688 38.121094 C 105.929688 38.453125 105.894531 38.714844 105.835938 38.902344 C 105.792969 39.042969 105.742188 39.144531 105.679688 39.226562 C 105.589844 39.34375 105.488281 39.421875 105.300781 39.492188 C 105.117188 39.5625 104.84375 39.613281 104.484375 39.613281 C 104.3125 39.613281 104.125 39.601562 103.914062 39.582031 L 103.519531 39.542969 L 103.296875 39.867188 C 102.992188 40.300781 102.71875 40.761719 102.480469 41.234375 L 102.300781 41.589844 L 102.523438 41.917969 C 102.738281 42.238281 102.890625 42.519531 102.984375 42.757812 C 103.082031 42.996094 103.117188 43.1875 103.117188 43.339844 C 103.117188 43.460938 103.097656 43.558594 103.054688 43.65625 C 102.996094 43.804688 102.882812 43.96875 102.664062 44.15625 C 102.449219 44.339844 102.136719 44.535156 101.726562 44.734375 L 101.375 44.902344 L 101.34375 45.285156 C 101.324219 45.5625 101.304688 45.84375 101.304688 46.128906 L 101.976562 46.136719 L 101.304688 46.125 L 101.304688 46.214844 C 101.304688 46.476562 101.3125 46.726562 101.332031 46.976562 L 101.359375 47.359375 L 101.703125 47.535156 C 102.246094 47.800781 102.613281 48.070312 102.8125 48.300781 C 102.914062 48.414062 102.976562 48.519531 103.019531 48.621094 C 103.054688 48.71875 103.074219 48.816406 103.074219 48.933594 C 103.074219 49.085938 103.039062 49.277344 102.941406 49.519531 C 102.84375 49.757812 102.683594 50.042969 102.460938 50.363281 L 102.234375 50.6875 L 102.40625 51.042969 C 102.640625 51.523438 102.90625 51.984375 103.203125 52.425781 L 103.425781 52.75 L 103.820312 52.71875 C 104.003906 52.703125 104.171875 52.695312 104.324219 52.695312 C 104.65625 52.695312 104.914062 52.730469 105.105469 52.789062 C 105.246094 52.832031 105.347656 52.886719 105.425781 52.945312 C 105.546875 53.035156 105.625 53.136719 105.699219 53.324219 C 105.765625 53.507812 105.8125 53.777344 105.8125 54.140625 C 105.8125 54.308594 105.804688 54.503906 105.785156 54.710938 L 105.746094 55.105469 L 106.070312 55.328125 C 106.503906 55.632812 106.960938 55.90625 107.441406 56.144531 L 107.792969 56.324219 L 108.121094 56.101562 C 108.441406 55.886719 108.722656 55.734375 108.960938 55.636719 C 109.203125 55.542969 109.394531 55.507812 109.546875 55.507812 C 109.664062 55.507812 109.761719 55.527344 109.863281 55.566406 C 110.011719 55.628906 110.175781 55.742188 110.359375 55.960938 C 110.542969 56.175781 110.742188 56.488281 110.9375 56.898438 L 111.105469 57.246094 L 111.492188 57.28125 C 111.765625 57.300781 112.046875 57.316406 112.335938 57.320312 L 112.40625 57.320312 C 112.671875 57.320312 112.929688 57.308594 113.183594 57.292969 L 113.570312 57.265625 L 113.742188 56.917969 C 114.011719 56.378906 114.277344 56.015625 114.507812 55.8125 C 114.625 55.710938 114.726562 55.648438 114.824219 55.609375 C 114.925781 55.566406 115.023438 55.546875 115.140625 55.546875 C 115.292969 55.546875 115.484375 55.585938 115.722656 55.683594 C 115.964844 55.78125 116.25 55.9375 116.570312 56.164062 L 116.894531 56.386719 L 117.25 56.214844 C 117.730469 55.984375 118.191406 55.71875 118.632812 55.421875 L 118.960938 55.199219 L 118.925781 54.804688 C 118.910156 54.621094 118.902344 54.453125 118.902344 54.300781 C 118.902344 53.96875 118.941406 53.710938 118.996094 53.519531 C 119.039062 53.378906 119.09375 53.277344 119.152344 53.199219 C 119.242188 53.078125 119.34375 53 119.53125 52.929688 C 119.71875 52.859375 119.988281 52.8125 120.347656 52.8125 C 120.519531 52.8125 120.710938 52.820312 120.917969 52.84375 L 121.3125 52.882812 L 121.539062 52.554688 C 121.84375 52.121094 122.117188 51.664062 122.355469 51.1875 L 122.53125 50.832031 L 122.3125 50.507812 C 122.097656 50.1875 121.945312 49.90625 121.847656 49.664062 C 121.753906 49.425781 121.714844 49.234375 121.714844 49.082031 C 121.71875 48.960938 121.738281 48.863281 121.777344 48.765625 C 121.839844 48.617188 121.953125 48.453125 122.167969 48.269531 C 122.382812 48.082031 122.699219 47.886719 123.109375 47.691406 L 123.460938 47.519531 L 123.492188 47.132812 L 122.816406 47.082031 L 122.527344 46.472656 C 121.882812 46.78125 121.363281 47.117188 120.976562 47.542969 C 120.789062 47.757812 120.632812 47.996094 120.527344 48.257812 C 120.417969 48.519531 120.367188 48.800781 120.367188 49.082031 C 120.367188 49.445312 120.449219 49.804688 120.59375 50.164062 C 120.734375 50.523438 120.9375 50.882812 121.191406 51.261719 L 121.75 50.882812 L 121.148438 50.582031 C 120.9375 51 120.699219 51.402344 120.429688 51.785156 L 120.988281 52.167969 L 121.050781 51.5 C 120.808594 51.472656 120.574219 51.460938 120.347656 51.460938 C 119.929688 51.460938 119.542969 51.507812 119.1875 51.617188 C 118.921875 51.703125 118.671875 51.828125 118.457031 51.996094 C 118.128906 52.25 117.886719 52.605469 117.75 52.996094 C 117.609375 53.390625 117.554688 53.824219 117.550781 54.300781 C 117.550781 54.5 117.5625 54.703125 117.578125 54.917969 L 118.253906 54.863281 L 117.875 54.304688 C 117.492188 54.5625 117.085938 54.796875 116.660156 55 L 116.957031 55.609375 L 117.339844 55.054688 C 116.960938 54.789062 116.597656 54.582031 116.234375 54.433594 C 115.875 54.285156 115.507812 54.199219 115.140625 54.199219 C 114.859375 54.199219 114.582031 54.25 114.324219 54.355469 C 113.933594 54.511719 113.597656 54.777344 113.308594 55.105469 C 113.019531 55.441406 112.769531 55.839844 112.53125 56.316406 L 113.136719 56.617188 L 113.089844 55.945312 C 112.859375 55.960938 112.632812 55.96875 112.40625 55.96875 L 112.347656 55.96875 C 112.101562 55.96875 111.855469 55.957031 111.605469 55.933594 L 111.546875 56.605469 L 112.15625 56.316406 C 111.84375 55.671875 111.511719 55.152344 111.082031 54.769531 C 110.871094 54.578125 110.632812 54.421875 110.371094 54.316406 C 110.109375 54.210938 109.828125 54.15625 109.546875 54.15625 C 109.183594 54.15625 108.820312 54.242188 108.460938 54.382812 C 108.105469 54.527344 107.742188 54.730469 107.367188 54.980469 L 107.742188 55.542969 L 108.046875 54.9375 C 107.625 54.730469 107.226562 54.488281 106.84375 54.222656 L 106.457031 54.777344 L 107.128906 54.839844 C 107.152344 54.597656 107.164062 54.363281 107.164062 54.140625 C 107.164062 53.71875 107.117188 53.335938 107.007812 52.980469 C 106.925781 52.714844 106.800781 52.464844 106.628906 52.25 C 106.375 51.917969 106.023438 51.679688 105.628906 51.542969 C 105.234375 51.398438 104.804688 51.34375 104.324219 51.34375 C 104.128906 51.34375 103.921875 51.355469 103.707031 51.371094 L 103.761719 52.046875 L 104.324219 51.667969 C 104.0625 51.28125 103.828125 50.875 103.621094 50.453125 L 103.015625 50.75 L 103.570312 51.132812 C 103.832031 50.753906 104.042969 50.390625 104.191406 50.027344 C 104.339844 49.667969 104.425781 49.300781 104.425781 48.933594 C 104.429688 48.652344 104.375 48.375 104.269531 48.117188 C 104.113281 47.726562 103.851562 47.394531 103.515625 47.101562 C 103.183594 46.8125 102.78125 46.5625 102.308594 46.324219 L 102.007812 46.929688 L 102.679688 46.882812 C 102.664062 46.65625 102.652344 46.433594 102.652344 46.214844 L 102.652344 46.140625 C 102.65625 45.894531 102.667969 45.648438 102.691406 45.398438 L 102.019531 45.34375 L 102.3125 45.949219 C 102.953125 45.640625 103.46875 45.304688 103.855469 44.878906 C 104.046875 44.664062 104.203125 44.425781 104.308594 44.164062 C 104.414062 43.90625 104.46875 43.625 104.46875 43.339844 C 104.46875 42.976562 104.382812 42.617188 104.242188 42.257812 C 104.097656 41.902344 103.898438 41.539062 103.640625 41.164062 L 103.082031 41.539062 L 103.6875 41.84375 C 103.898438 41.421875 104.136719 41.019531 104.402344 40.636719 L 103.847656 40.253906 L 103.78125 40.925781 C 104.027344 40.949219 104.261719 40.960938 104.484375 40.960938 C 104.902344 40.960938 105.289062 40.917969 105.644531 40.804688 C 105.910156 40.722656 106.160156 40.597656 106.378906 40.425781 C 106.707031 40.171875 106.945312 39.820312 107.085938 39.425781 C 107.226562 39.03125 107.28125 38.601562 107.28125 38.121094 C 107.28125 37.925781 107.273438 37.71875 107.253906 37.503906 L 106.582031 37.558594 L 106.960938 38.121094 C 107.34375 37.859375 107.75 37.625 108.171875 37.421875 L 107.878906 36.816406 L 107.492188 37.367188 C 107.871094 37.632812 108.234375 37.839844 108.597656 37.988281 C 108.960938 38.136719 109.324219 38.226562 109.695312 38.226562 C 109.972656 38.226562 110.253906 38.171875 110.511719 38.066406 C 110.902344 37.910156 111.234375 37.644531 111.523438 37.316406 C 111.816406 36.984375 112.066406 36.582031 112.304688 36.105469 L 111.699219 35.804688 L 111.746094 36.476562 C 111.976562 36.460938 112.207031 36.449219 112.4375 36.449219 L 112.488281 36.453125 C 112.734375 36.453125 112.980469 36.46875 113.230469 36.488281 L 113.285156 35.816406 L 112.679688 36.109375 C 112.988281 36.75 113.324219 37.269531 113.75 37.652344 C 113.964844 37.84375 114.203125 38 114.464844 38.105469 C 114.726562 38.210938 115.007812 38.265625 115.289062 38.265625 C 115.652344 38.265625 116.011719 38.179688 116.371094 38.039062 C 116.730469 37.894531 117.089844 37.695312 117.46875 37.441406 L 117.089844 36.878906 L 116.789062 37.484375 C 117.207031 37.695312 117.609375 37.933594 117.992188 38.199219 L 118.378906 37.644531 L 117.707031 37.574219 C 117.679688 37.824219 117.667969 38.058594 117.667969 38.28125 C 117.667969 38.703125 117.714844 39.085938 117.828125 39.441406 C 117.910156 39.707031 118.035156 39.957031 118.203125 40.175781 C 118.457031 40.503906 118.8125 40.742188 119.207031 40.882812 C 119.597656 41.023438 120.03125 41.078125 120.511719 41.078125 C 120.707031 41.078125 120.914062 41.066406 121.128906 41.050781 L 121.070312 40.378906 L 120.511719 40.757812 C 120.773438 41.140625 121.007812 41.546875 121.210938 41.96875 L 121.820312 41.675781 L 121.265625 41.289062 C 121 41.667969 120.789062 42.03125 120.640625 42.394531 C 120.496094 42.753906 120.40625 43.121094 120.40625 43.488281 C 120.40625 43.769531 120.460938 44.046875 120.5625 44.304688 C 120.71875 44.695312 120.984375 45.03125 121.316406 45.320312 C 121.648438 45.609375 122.050781 45.859375 122.527344 46.097656 L 122.828125 45.492188 L 122.15625 45.535156 C 122.171875 45.773438 122.179688 46.003906 122.179688 46.230469 L 122.179688 46.285156 L 122.179688 46.28125 C 122.179688 46.527344 122.164062 46.773438 122.144531 47.027344 L 122.816406 47.082031 L 122.527344 46.472656 L 122.816406 47.082031 " fill-opacity="1" fill-rule="nonzero"/><path fill="#ed3947" d="M 175.1875 53.148438 C 175.1875 62.269531 167.785156 69.664062 158.660156 69.664062 C 149.53125 69.664062 142.136719 62.269531 142.136719 53.148438 C 142.136719 44.023438 149.53125 36.628906 158.660156 36.628906 C 167.785156 36.628906 175.1875 44.023438 175.1875 53.148438 " fill-opacity="1" fill-rule="nonzero"/><path fill="#1a2523" d="M 155.625 56.6875 L 148.386719 52.375 L 155.625 48.0625 L 154.933594 46.902344 L 145.746094 52.375 L 154.933594 57.847656 L 155.625 56.6875 " fill-opacity="1" fill-rule="nonzero"/><path fill="#1a2523" d="M 162.386719 57.847656 L 171.570312 52.375 L 162.386719 46.902344 L 161.695312 48.0625 L 168.929688 52.375 L 161.695312 56.6875 L 162.386719 57.847656 " fill-opacity="1" fill-rule="nonzero"/><path fill="#1a2523" d="M 160.796875 40.746094 L 155.207031 63.683594 L 156.519531 64.003906 L 162.109375 41.066406 " fill-opacity="1" fill-rule="nonzero"/><path fill="#f9a72b" d="M 82.699219 53.148438 C 82.699219 62.269531 75.300781 69.664062 66.175781 69.664062 C 57.050781 69.664062 49.652344 62.269531 49.652344 53.148438 C 49.652344 44.023438 57.050781 36.628906 66.175781 36.628906 C 75.300781 36.628906 82.699219 44.023438 82.699219 53.148438 " fill-opacity="1" fill-rule="nonzero"/><path fill="#1a2523" d="M 71.789062 47.242188 L 71.113281 47.242188 C 71.113281 48.609375 70.5625 49.839844 69.667969 50.734375 C 68.773438 51.628906 67.542969 52.179688 66.175781 52.179688 C 64.808594 52.179688 63.578125 51.628906 62.683594 50.734375 C 61.789062 49.839844 61.238281 48.609375 61.234375 47.242188 C 61.238281 45.878906 61.789062 44.648438 62.683594 43.75 C 63.578125 42.859375 64.808594 42.308594 66.175781 42.308594 C 67.542969 42.308594 68.773438 42.859375 69.667969 43.75 C 70.5625 44.648438 71.113281 45.878906 71.113281 47.242188 L 72.464844 47.242188 C 72.464844 43.769531 69.648438 40.957031 66.175781 40.957031 C 62.703125 40.957031 59.886719 43.769531 59.886719 47.242188 C 59.886719 50.714844 62.703125 53.53125 66.175781 53.53125 C 69.648438 53.53125 72.464844 50.714844 72.464844 47.242188 L 71.789062 47.242188 " fill-opacity="1" fill-rule="nonzero"/><path fill="#1a2523" d="M 68.589844 45.179688 C 69.105469 45.785156 69.324219 46.472656 69.328125 47.164062 C 69.328125 47.988281 69 48.816406 68.441406 49.421875 C 67.878906 50.027344 67.113281 50.417969 66.175781 50.417969 L 66.175781 51.769531 C 67.503906 51.769531 68.648438 51.195312 69.433594 50.335938 C 70.222656 49.476562 70.675781 48.34375 70.679688 47.164062 C 70.679688 46.175781 70.347656 45.15625 69.617188 44.304688 L 68.589844 45.179688 " fill-opacity="1" fill-rule="nonzero"/><path fill="#1a2523" d="M 66.175781 44.066406 C 66.65625 44.066406 67.140625 44.179688 67.570312 44.390625 L 68.167969 43.179688 C 67.546875 42.875 66.863281 42.71875 66.175781 42.71875 L 66.175781 44.066406 " fill-opacity="1" fill-rule="nonzero"/><path fill="#1a2523" d="M 73.777344 47.242188 L 73.101562 47.242188 C 73.101562 49.15625 72.328125 50.882812 71.074219 52.140625 C 69.816406 53.394531 68.089844 54.167969 66.175781 54.167969 C 64.261719 54.167969 62.535156 53.394531 61.277344 52.140625 C 60.023438 50.882812 59.25 49.15625 59.25 47.242188 C 59.25 45.328125 60.023438 43.601562 61.277344 42.347656 C 62.535156 41.09375 64.261719 40.320312 66.175781 40.320312 C 68.089844 40.320312 69.816406 41.09375 71.074219 42.347656 C 72.328125 43.601562 73.101562 45.328125 73.101562 47.242188 L 74.453125 47.242188 C 74.453125 42.671875 70.75 38.96875 66.175781 38.96875 C 61.601562 38.96875 57.898438 42.671875 57.898438 47.242188 C 57.898438 51.8125 61.601562 55.519531 66.175781 55.519531 C 70.75 55.519531 74.453125 51.8125 74.453125 47.242188 L 73.777344 47.242188 " fill-opacity="1" fill-rule="nonzero"/><path fill="#1a2523" d="M 66.976562 57.476562 L 66.976562 56.800781 L 66.050781 56.800781 L 66.050781 55.472656 L 66.300781 55.472656 L 66.300781 57.476562 L 66.976562 57.476562 L 66.976562 56.800781 L 66.976562 57.476562 L 67.652344 57.476562 L 67.652344 54.125 L 64.699219 54.125 L 64.699219 58.148438 L 67.652344 58.148438 L 67.652344 57.476562 L 66.976562 57.476562 " fill-opacity="1" fill-rule="nonzero"/><path fill="#1a2523" d="M 68.089844 66.652344 L 68.089844 65.976562 L 64.9375 65.976562 L 64.9375 58.148438 L 67.414062 58.148438 L 67.414062 66.652344 L 68.089844 66.652344 L 68.089844 65.976562 L 68.089844 66.652344 L 68.765625 66.652344 L 68.765625 56.800781 L 63.582031 56.800781 L 63.582031 67.328125 L 68.765625 67.328125 L 68.765625 66.652344 L 68.089844 66.652344 " fill-opacity="1" fill-rule="nonzero"/><g clip-path="url(#6d3dd66718)"><path fill="#f46f3f" d="M 55.765625 85.222656 C 55.765625 94.34375 48.363281 101.738281 39.238281 101.738281 C 30.109375 101.738281 22.710938 94.34375 22.710938 85.222656 C 22.710938 76.097656 30.109375 68.703125 39.238281 68.703125 C 48.363281 68.703125 55.765625 76.097656 55.765625 85.222656 " fill-opacity="1" fill-rule="nonzero"/></g><path fill="#1a2523" d="M 39.238281 76.109375 L 39.238281 75.433594 C 36.214844 75.433594 33.460938 76.386719 31.441406 77.957031 C 30.429688 78.746094 29.601562 79.691406 29.027344 80.753906 C 28.449219 81.820312 28.125 83.003906 28.125 84.246094 C 28.125 86.59375 29.285156 88.710938 31.109375 90.257812 L 31.546875 89.746094 L 30.898438 89.554688 L 29.207031 95.363281 L 37.144531 92.824219 L 36.9375 92.179688 L 36.820312 92.84375 C 37.601562 92.980469 38.40625 93.054688 39.238281 93.054688 C 42.265625 93.054688 45.015625 92.105469 47.035156 90.53125 C 48.046875 89.742188 48.875 88.796875 49.449219 87.734375 C 50.027344 86.667969 50.351562 85.484375 50.351562 84.246094 C 50.351562 83.003906 50.027344 81.820312 49.449219 80.753906 C 48.582031 79.160156 47.15625 77.832031 45.390625 76.902344 C 43.621094 75.96875 41.507812 75.433594 39.238281 75.433594 L 39.238281 76.78125 C 41.980469 76.78125 44.449219 77.652344 46.207031 79.023438 C 47.082031 79.710938 47.785156 80.515625 48.261719 81.398438 C 48.742188 82.285156 49 83.238281 49 84.246094 C 49 85.25 48.742188 86.207031 48.261719 87.089844 C 47.546875 88.414062 46.324219 89.570312 44.757812 90.394531 C 43.195312 91.21875 41.292969 91.707031 39.238281 91.707031 C 38.488281 91.707031 37.757812 91.636719 37.054688 91.515625 L 36.890625 91.488281 L 31.214844 93.304688 L 32.320312 89.515625 L 31.984375 89.230469 C 30.398438 87.882812 29.472656 86.136719 29.472656 84.246094 C 29.472656 83.238281 29.734375 82.285156 30.214844 81.398438 C 30.929688 80.074219 32.152344 78.917969 33.714844 78.097656 C 35.28125 77.269531 37.183594 76.78125 39.238281 76.78125 L 39.238281 76.109375 " fill-opacity="1" fill-rule="nonzero"/><path fill="#1a2523" d="M 33.289062 82.171875 L 45.183594 82.171875 L 45.183594 80.824219 L 33.289062 80.824219 Z M 33.289062 82.171875 " fill-opacity="1" fill-rule="nonzero"/><path fill="#1a2523" d="M 33.289062 85.117188 L 45.183594 85.117188 L 45.183594 83.769531 L 33.289062 83.769531 Z M 33.289062 85.117188 " fill-opacity="1" fill-rule="nonzero"/><path fill="#1a2523" d="M 33.289062 88.066406 L 45.183594 88.066406 L 45.183594 86.714844 L 33.289062 86.714844 Z M 33.289062 88.066406 " fill-opacity="1" fill-rule="nonzero"/><g clip-path="url(#f0003e9815)"><path fill="#3bbec5" d="M 202.121094 85.222656 C 202.121094 94.34375 194.722656 101.738281 185.597656 101.738281 C 176.46875 101.738281 169.074219 94.34375 169.074219 85.222656 C 169.074219 76.097656 176.46875 68.703125 185.597656 68.703125 C 194.722656 68.703125 202.121094 76.097656 202.121094 85.222656 " fill-opacity="1" fill-rule="nonzero"/></g><path fill="#1a2523" d="M 196.214844 85.222656 L 195.539062 85.222656 C 195.539062 87.96875 194.425781 90.449219 192.628906 92.25 C 190.824219 94.046875 188.34375 95.160156 185.597656 95.160156 C 182.847656 95.160156 180.367188 94.046875 178.566406 92.25 C 176.765625 90.449219 175.652344 87.96875 175.652344 85.222656 C 175.652344 82.476562 176.765625 79.996094 178.566406 78.195312 C 180.367188 76.394531 182.847656 75.28125 185.597656 75.28125 C 188.34375 75.28125 190.824219 76.394531 192.628906 78.195312 C 194.425781 79.996094 195.539062 82.476562 195.539062 85.222656 L 196.890625 85.222656 C 196.886719 78.988281 191.832031 73.933594 185.597656 73.933594 C 179.359375 73.933594 174.304688 78.988281 174.304688 85.222656 C 174.304688 91.457031 179.359375 96.507812 185.597656 96.507812 C 191.832031 96.507812 196.886719 91.457031 196.890625 85.222656 L 196.214844 85.222656 " fill-opacity="1" fill-rule="nonzero"/><path fill="#1a2523" d="M 189.652344 85.222656 L 188.976562 85.222656 C 188.980469 88.082031 188.527344 90.671875 187.835938 92.484375 C 187.488281 93.390625 187.078125 94.101562 186.671875 94.546875 C 186.472656 94.773438 186.273438 94.929688 186.09375 95.023438 C 185.914062 95.121094 185.753906 95.160156 185.597656 95.160156 C 185.4375 95.160156 185.277344 95.121094 185.097656 95.023438 C 184.78125 94.859375 184.414062 94.496094 184.0625 93.9375 C 183.539062 93.105469 183.066406 91.859375 182.738281 90.359375 C 182.40625 88.859375 182.214844 87.097656 182.214844 85.222656 C 182.214844 82.359375 182.664062 79.773438 183.359375 77.957031 C 183.703125 77.050781 184.113281 76.339844 184.519531 75.894531 C 184.71875 75.671875 184.917969 75.515625 185.097656 75.417969 C 185.277344 75.324219 185.4375 75.28125 185.597656 75.28125 C 185.753906 75.28125 185.914062 75.324219 186.09375 75.417969 C 186.410156 75.582031 186.777344 75.945312 187.128906 76.503906 C 187.652344 77.335938 188.128906 78.582031 188.457031 80.085938 C 188.785156 81.585938 188.976562 83.34375 188.976562 85.222656 L 190.328125 85.222656 C 190.328125 82.21875 189.867188 79.503906 189.09375 77.476562 C 188.707031 76.460938 188.242188 75.617188 187.675781 74.988281 C 187.394531 74.675781 187.082031 74.417969 186.734375 74.226562 C 186.386719 74.042969 185.996094 73.933594 185.597656 73.933594 C 185.195312 73.933594 184.808594 74.042969 184.460938 74.226562 C 183.851562 74.558594 183.351562 75.101562 182.921875 75.785156 C 182.277344 76.8125 181.773438 78.183594 181.417969 79.792969 C 181.0625 81.402344 180.863281 83.253906 180.863281 85.222656 C 180.867188 88.222656 181.324219 90.941406 182.097656 92.964844 C 182.484375 93.980469 182.949219 94.824219 183.515625 95.453125 C 183.800781 95.765625 184.109375 96.027344 184.460938 96.214844 C 184.808594 96.398438 185.195312 96.511719 185.597656 96.507812 C 185.996094 96.511719 186.386719 96.398438 186.730469 96.214844 C 187.34375 95.886719 187.839844 95.34375 188.269531 94.65625 C 188.917969 93.628906 189.417969 92.257812 189.773438 90.648438 C 190.128906 89.039062 190.328125 87.191406 190.328125 85.222656 L 189.652344 85.222656 " fill-opacity="1" fill-rule="nonzero"/><path fill="#1a2523" d="M 174.976562 85.894531 L 196.914062 85.894531 L 196.914062 84.546875 L 174.976562 84.546875 Z M 174.976562 85.894531 " fill-opacity="1" fill-rule="nonzero"/><path fill="#1a2523" d="M 192.207031 77.085938 C 190.894531 79.382812 188.429688 80.933594 185.597656 80.933594 C 182.761719 80.933594 180.296875 79.382812 178.984375 77.085938 L 177.8125 77.753906 C 179.351562 80.457031 182.261719 82.285156 185.597656 82.285156 C 188.933594 82.285156 191.84375 80.457031 193.378906 77.753906 L 192.207031 77.085938 " fill-opacity="1" fill-rule="nonzero"/><path fill="#1a2523" d="M 178.984375 93.355469 C 180.296875 91.058594 182.761719 89.507812 185.597656 89.507812 C 188.429688 89.507812 190.894531 91.058594 192.207031 93.355469 L 193.382812 92.6875 C 191.84375 89.984375 188.933594 88.160156 185.597656 88.160156 C 182.261719 88.160156 179.351562 89.984375 177.8125 92.6875 L 178.984375 93.355469 " fill-opacity="1" fill-rule="nonzero"/></svg>