<svg xmlns="http://www.w3.org/2000/svg" xmlns:xlink="http://www.w3.org/1999/xlink" width="300" zoomAndPan="magnify" viewBox="0 0 224.87999 225" height="300" preserveAspectRatio="xMidYMid meet" version="1.0"><defs><clipPath id="d75a801952"><path d="M 177 108 L 184.703125 108 L 184.703125 116 L 177 116 Z M 177 108 " clip-rule="nonzero"/></clipPath><clipPath id="0519ace7d3"><path d="M 151 25.640625 L 162 25.640625 L 162 36 L 151 36 Z M 151 25.640625 " clip-rule="nonzero"/></clipPath><clipPath id="521cf6cc73"><path d="M 98 171 L 103 171 L 103 175.5625 L 98 175.5625 Z M 98 171 " clip-rule="nonzero"/></clipPath><clipPath id="f75ae3bc7a"><path d="M 40.03125 40 L 173 40 L 173 158 L 40.03125 158 Z M 40.03125 40 " clip-rule="nonzero"/></clipPath><clipPath id="ce5e012149"><path d="M 163 161.265625 L 192.398438 161.265625 L 192.398438 177 L 163 177 Z M 163 161.265625 " clip-rule="nonzero"/></clipPath><clipPath id="7577adcaa5"><path d="M 163 161.265625 L 192.398438 161.265625 L 192.398438 178 L 163 178 Z M 163 161.265625 " clip-rule="nonzero"/></clipPath><clipPath id="faf364b8fd"><path d="M 125 185 L 161 185 L 161 200.992188 L 125 200.992188 Z M 125 185 " clip-rule="nonzero"/></clipPath><clipPath id="dd14a4caf3"><path d="M 124.933594 185 L 162 185 L 162 200.992188 L 124.933594 200.992188 Z M 124.933594 185 " clip-rule="nonzero"/></clipPath><clipPath id="dbb75501cd"><path d="M 171 185 L 192.398438 185 L 192.398438 200.992188 L 171 200.992188 Z M 171 185 " clip-rule="nonzero"/></clipPath><clipPath id="4722a4edea"><path d="M 125 161.265625 L 154 161.265625 L 154 178 L 125 178 Z M 125 161.265625 " clip-rule="nonzero"/></clipPath><clipPath id="ad877bbc99"><path d="M 124.933594 161.265625 L 155 161.265625 L 155 178 L 124.933594 178 Z M 124.933594 161.265625 " clip-rule="nonzero"/></clipPath></defs><path fill="#dae6f1" d="M 157.617188 112.199219 C 156.003906 112.199219 154.691406 113.507812 154.691406 115.125 L 154.691406 156.371094 C 154.691406 157.988281 156.003906 159.300781 157.617188 159.300781 C 159.234375 159.300781 160.546875 157.988281 160.546875 156.371094 L 160.546875 115.125 C 160.546875 113.507812 159.238281 112.199219 157.617188 112.199219 Z M 157.617188 112.199219 " fill-opacity="1" fill-rule="nonzero"/><path fill="#fc657e" d="M 176.570312 123.929688 L 160.546875 115.65625 L 160.546875 134.757812 L 176.570312 126.484375 C 177.605469 125.949219 177.605469 124.464844 176.570312 123.929688 Z M 176.570312 123.929688 " fill-opacity="1" fill-rule="nonzero"/><path fill="#70d6f9" d="M 101.558594 41.902344 L 50.308594 41.902344 C 45.457031 41.902344 41.523438 45.835938 41.523438 50.6875 C 41.523438 55.539062 45.457031 59.472656 50.308594 59.472656 L 101.851562 59.472656 L 110.488281 50.832031 Z M 101.558594 41.902344 " fill-opacity="1" fill-rule="nonzero"/><path fill="#f5c84c" d="M 101.949219 138.824219 L 74.828125 138.824219 C 66.3125 138.824219 59.382812 131.894531 59.382812 123.378906 C 59.382812 114.859375 66.3125 107.929688 74.828125 107.929688 L 108.8125 107.929688 L 100.320312 99.441406 L 109.398438 90.363281 L 74.828125 90.363281 C 56.625 90.363281 41.816406 105.171875 41.816406 123.378906 C 41.816406 141.582031 56.625 156.390625 74.828125 156.390625 L 101.65625 156.390625 L 110.589844 147.460938 Z M 101.949219 138.824219 " fill-opacity="1" fill-rule="nonzero"/><path fill="#87d147" d="M 138.074219 41.902344 L 101.558594 41.902344 L 110.488281 50.832031 L 101.851562 59.472656 L 138.074219 59.472656 C 146.539062 59.472656 153.46875 66.359375 153.519531 74.824219 C 153.570312 83.398438 146.648438 90.363281 138.074219 90.363281 L 109.398438 90.363281 L 100.320312 99.441406 L 108.8125 107.929688 L 138.074219 107.929688 C 156.402344 107.929688 171.199219 93.042969 171.085938 74.71875 C 170.976562 56.625 156.167969 41.902344 138.074219 41.902344 Z M 138.074219 41.902344 " fill-opacity="1" fill-rule="nonzero"/><path fill="#fc657e" d="M 154.691406 156.390625 C 154.691406 156.386719 154.691406 156.378906 154.691406 156.371094 L 154.691406 138.824219 L 101.949219 138.824219 L 110.589844 147.460938 L 101.65625 156.390625 Z M 154.691406 156.390625 " fill-opacity="1" fill-rule="nonzero"/><path fill="#f5c84c" d="M 87.457031 166.6875 C 84.824219 166.21875 82.773438 164.171875 82.246094 161.59375 C 82.246094 161.476562 82.011719 161.476562 82.011719 161.59375 C 81.484375 164.171875 79.433594 166.21875 76.800781 166.6875 C 76.683594 166.6875 76.683594 166.863281 76.800781 166.921875 C 79.433594 167.390625 81.484375 169.441406 82.011719 172.019531 C 82.011719 172.132812 82.246094 172.132812 82.246094 172.019531 C 82.773438 169.441406 84.824219 167.390625 87.457031 166.921875 C 87.574219 166.863281 87.574219 166.6875 87.457031 166.6875 Z M 87.457031 166.6875 " fill-opacity="1" fill-rule="nonzero"/><g clip-path="url(#d75a801952)"><path fill="#f5c84c" d="M 184.558594 111.851562 C 182.707031 111.519531 181.269531 110.082031 180.898438 108.277344 C 180.898438 108.191406 180.734375 108.191406 180.734375 108.277344 C 180.363281 110.082031 178.925781 111.523438 177.078125 111.851562 C 176.996094 111.851562 176.996094 111.972656 177.078125 112.015625 C 178.925781 112.34375 180.363281 113.78125 180.734375 115.589844 C 180.734375 115.671875 180.898438 115.671875 180.898438 115.589844 C 181.269531 113.78125 182.707031 112.34375 184.558594 112.015625 C 184.640625 111.972656 184.640625 111.851562 184.558594 111.851562 Z M 184.558594 111.851562 " fill-opacity="1" fill-rule="nonzero"/></g><g clip-path="url(#0519ace7d3)"><path fill="#70d6f9" d="M 160.015625 28.863281 L 158.667969 28.863281 L 158.667969 27.515625 C 158.667969 26.519531 157.847656 25.640625 156.792969 25.640625 C 155.738281 25.640625 154.917969 26.460938 154.917969 27.515625 L 154.917969 28.863281 L 153.574219 28.863281 C 152.578125 28.863281 151.699219 29.679688 151.699219 30.734375 C 151.699219 31.789062 152.519531 32.609375 153.574219 32.609375 L 154.917969 32.609375 L 154.917969 33.957031 C 154.917969 34.953125 155.738281 35.832031 156.792969 35.832031 C 157.847656 35.832031 158.667969 35.011719 158.667969 33.957031 L 158.667969 32.609375 L 160.015625 32.609375 C 161.007812 32.609375 161.886719 31.789062 161.886719 30.734375 C 161.886719 29.679688 161.066406 28.863281 160.015625 28.863281 Z M 160.015625 28.863281 " fill-opacity="1" fill-rule="nonzero"/></g><path fill="#f5c84c" d="M 139.578125 30.441406 C 138.476562 30.441406 137.585938 31.335938 137.585938 32.433594 C 137.585938 33.53125 138.476562 34.425781 139.578125 34.425781 C 140.675781 34.425781 141.566406 33.535156 141.566406 32.433594 C 141.566406 31.335938 140.675781 30.441406 139.578125 30.441406 Z M 139.578125 30.441406 " fill-opacity="1" fill-rule="nonzero"/><path fill="#fc657e" d="M 82.1875 80.222656 C 81.085938 80.222656 80.195312 81.113281 80.195312 82.210938 C 80.195312 83.3125 81.085938 84.203125 82.1875 84.203125 C 83.285156 84.203125 84.179688 83.3125 84.179688 82.210938 C 84.179688 81.113281 83.285156 80.222656 82.1875 80.222656 Z M 82.1875 80.222656 " fill-opacity="1" fill-rule="nonzero"/><g clip-path="url(#521cf6cc73)"><path fill="#87d147" d="M 100.339844 171.578125 C 99.242188 171.578125 98.351562 172.46875 98.351562 173.570312 C 98.351562 174.667969 99.242188 175.5625 100.339844 175.5625 C 101.441406 175.5625 102.332031 174.667969 102.332031 173.570312 C 102.332031 172.46875 101.441406 171.578125 100.339844 171.578125 Z M 100.339844 171.578125 " fill-opacity="1" fill-rule="nonzero"/></g><path fill="#000000" d="M 157.617188 110.734375 C 155.195312 110.734375 153.226562 112.703125 153.226562 115.128906 L 153.226562 156.371094 C 153.226562 158.792969 155.195312 160.765625 157.617188 160.765625 C 160.039062 160.765625 162.011719 158.792969 162.011719 156.371094 L 162.011719 115.128906 C 162.011719 112.703125 160.039062 110.734375 157.617188 110.734375 Z M 159.082031 156.371094 C 159.082031 157.179688 158.425781 157.835938 157.617188 157.835938 C 156.8125 157.835938 156.15625 157.179688 156.15625 156.371094 L 156.15625 115.125 C 156.15625 114.320312 156.8125 113.664062 157.617188 113.664062 C 158.425781 113.664062 159.082031 114.320312 159.082031 115.125 Z M 159.082031 156.371094 " fill-opacity="1" fill-rule="nonzero"/><g clip-path="url(#f75ae3bc7a)"><path fill="#000000" d="M 74.828125 109.394531 L 138.074219 109.394531 C 147.332031 109.394531 156.015625 105.785156 162.535156 99.230469 C 169.050781 92.671875 172.609375 83.964844 172.550781 74.710938 C 172.4375 55.8125 156.96875 40.4375 138.074219 40.4375 L 50.308594 40.4375 C 44.65625 40.4375 40.058594 45.035156 40.058594 50.6875 C 40.058594 56.335938 44.65625 60.933594 50.308594 60.933594 L 138.074219 60.933594 C 145.738281 60.933594 152.007812 67.167969 152.054688 74.832031 C 152.078125 78.585938 150.636719 82.117188 147.992188 84.777344 C 145.351562 87.433594 141.828125 88.898438 138.074219 88.898438 L 74.828125 88.898438 C 55.816406 88.898438 40.351562 104.363281 40.351562 123.375 C 40.351562 142.386719 55.816406 157.855469 74.828125 157.855469 L 154.210938 157.855469 C 155.019531 157.855469 155.671875 157.199219 155.671875 156.390625 C 155.671875 155.582031 155.019531 154.925781 154.210938 154.925781 L 74.828125 154.925781 C 57.433594 154.925781 43.28125 140.773438 43.28125 123.375 C 43.28125 105.980469 57.433594 91.828125 74.828125 91.828125 L 138.074219 91.828125 C 142.613281 91.828125 146.875 90.054688 150.070312 86.839844 C 153.265625 83.625 155.011719 79.355469 154.984375 74.8125 C 154.925781 65.546875 147.339844 58.007812 138.074219 58.007812 L 50.308594 58.007812 C 46.269531 58.007812 42.988281 54.722656 42.988281 50.6875 C 42.988281 46.648438 46.269531 43.367188 50.308594 43.367188 L 138.074219 43.367188 C 155.367188 43.367188 169.519531 57.433594 169.625 74.726562 C 169.675781 83.195312 166.417969 91.164062 160.457031 97.164062 C 154.492188 103.164062 146.546875 106.46875 138.074219 106.46875 L 74.828125 106.46875 C 65.503906 106.46875 57.921875 114.050781 57.921875 123.375 C 57.921875 132.699219 65.503906 140.285156 74.828125 140.285156 L 154.183594 140.285156 C 154.996094 140.285156 155.648438 139.632812 155.648438 138.824219 C 155.648438 138.015625 154.996094 137.359375 154.183594 137.359375 L 74.828125 137.359375 C 67.121094 137.359375 60.847656 131.085938 60.847656 123.375 C 60.847656 115.667969 67.121094 109.394531 74.828125 109.394531 Z M 74.828125 109.394531 " fill-opacity="1" fill-rule="nonzero"/></g><path fill="#000000" d="M 177.242188 122.628906 L 161.636719 114.570312 C 160.917969 114.199219 160.035156 114.480469 159.664062 115.199219 C 159.292969 115.917969 159.574219 116.800781 160.292969 117.171875 L 175.898438 125.183594 L 160.144531 133.316406 C 159.425781 133.6875 159.144531 134.570312 159.515625 135.289062 C 159.777344 135.792969 160.289062 136.082031 160.816406 136.082031 C 161.042969 136.082031 161.273438 136.027344 161.488281 135.917969 L 177.242188 127.785156 C 178.210938 127.285156 178.8125 126.296875 178.8125 125.207031 C 178.8125 124.117188 178.210938 123.128906 177.242188 122.628906 Z M 177.242188 122.628906 " fill-opacity="1" fill-rule="nonzero"/><path fill="#000000" d="M 111.625 146.425781 L 103.292969 138.09375 C 102.722656 137.523438 101.792969 137.523438 101.222656 138.09375 C 100.648438 138.667969 100.648438 139.59375 101.222656 140.164062 L 108.519531 147.460938 L 100.871094 155.105469 C 100.300781 155.679688 100.300781 156.605469 100.871094 157.175781 C 101.160156 157.464844 101.53125 157.605469 101.90625 157.605469 C 102.28125 157.605469 102.65625 157.464844 102.941406 157.175781 L 111.625 148.496094 C 111.898438 148.222656 112.054688 147.847656 112.054688 147.460938 C 112.054688 147.070312 111.898438 146.699219 111.625 146.425781 Z M 111.625 146.425781 " fill-opacity="1" fill-rule="nonzero"/><path fill="#000000" d="M 110.160156 89.601562 C 109.589844 89.027344 108.660156 89.027344 108.089844 89.601562 L 99.285156 98.40625 C 99.011719 98.679688 98.855469 99.050781 98.855469 99.441406 C 98.855469 99.828125 99.011719 100.199219 99.285156 100.476562 L 107.476562 108.667969 C 107.761719 108.953125 108.136719 109.097656 108.511719 109.097656 C 108.886719 109.097656 109.261719 108.953125 109.546875 108.667969 C 110.121094 108.09375 110.121094 107.167969 109.546875 106.597656 L 102.390625 99.441406 L 110.160156 91.667969 C 110.734375 91.097656 110.734375 90.171875 110.160156 89.601562 Z M 110.160156 89.601562 " fill-opacity="1" fill-rule="nonzero"/><path fill="#000000" d="M 111.523438 49.796875 L 102.976562 41.253906 C 102.40625 40.679688 101.480469 40.679688 100.90625 41.253906 C 100.335938 41.824219 100.335938 42.75 100.90625 43.324219 L 108.417969 50.832031 L 101.148438 58.105469 C 100.574219 58.675781 100.574219 59.601562 101.148438 60.171875 C 101.433594 60.460938 101.808594 60.601562 102.183594 60.601562 C 102.558594 60.601562 102.933594 60.460938 103.21875 60.171875 L 111.523438 51.867188 C 111.796875 51.59375 111.953125 51.222656 111.953125 50.832031 C 111.953125 50.445312 111.796875 50.074219 111.523438 49.796875 Z M 111.523438 49.796875 " fill-opacity="1" fill-rule="nonzero"/><g clip-path="url(#ce5e012149)"><path fill="#dbcb42" d="M 190.554688 176.933594 L 165.046875 176.933594 C 164.109375 176.933594 163.351562 176.175781 163.351562 175.242188 L 163.351562 163.105469 C 163.351562 162.171875 164.109375 161.414062 165.046875 161.414062 L 190.554688 161.414062 C 191.488281 161.414062 192.246094 162.171875 192.246094 163.105469 L 192.246094 175.242188 C 192.246094 176.175781 191.488281 176.933594 190.554688 176.933594 Z M 190.554688 176.933594 " fill-opacity="1" fill-rule="nonzero"/></g><g clip-path="url(#7577adcaa5)"><path fill="#262525" d="M 190.554688 177.082031 L 165.046875 177.082031 C 164.03125 177.082031 163.203125 176.257812 163.203125 175.242188 L 163.203125 163.105469 C 163.203125 162.089844 164.03125 161.265625 165.046875 161.265625 L 190.554688 161.265625 C 191.570312 161.265625 192.394531 162.089844 192.394531 163.105469 L 192.394531 175.242188 C 192.394531 176.257812 191.570312 177.082031 190.554688 177.082031 Z M 165.046875 161.5625 C 164.195312 161.5625 163.5 162.253906 163.5 163.105469 L 163.5 175.242188 C 163.5 176.09375 164.195312 176.785156 165.046875 176.785156 L 190.554688 176.785156 C 191.40625 176.785156 192.097656 176.09375 192.097656 175.242188 L 192.097656 163.105469 C 192.097656 162.253906 191.40625 161.5625 190.554688 161.5625 Z M 165.046875 161.5625 " fill-opacity="1" fill-rule="nonzero"/></g><path fill="#ffffff" d="M 169.304688 171.960938 L 169.304688 166.230469 C 169.304688 165.34375 169.523438 164.664062 169.964844 164.183594 C 170.402344 163.707031 171.042969 163.464844 171.890625 163.464844 C 172.738281 163.464844 173.394531 163.707031 173.859375 164.183594 C 174.324219 164.664062 174.558594 165.34375 174.558594 166.230469 L 174.558594 167.304688 L 172.832031 167.304688 L 172.832031 166.125 C 172.832031 165.402344 172.53125 165.039062 171.9375 165.039062 C 171.335938 165.039062 171.035156 165.402344 171.035156 166.125 L 171.035156 172.070312 C 171.035156 172.785156 171.335938 173.144531 171.9375 173.144531 C 172.53125 173.144531 172.832031 172.785156 172.832031 172.070312 L 172.832031 170.492188 L 174.558594 170.492188 L 174.558594 171.960938 C 174.558594 172.847656 174.324219 173.527344 173.859375 174.007812 C 173.394531 174.488281 172.738281 174.726562 171.890625 174.726562 C 171.042969 174.726562 170.402344 174.488281 169.964844 174.007812 C 169.523438 173.527344 169.304688 172.847656 169.304688 171.960938 Z M 169.304688 171.960938 " fill-opacity="1" fill-rule="nonzero"/><path fill="#ffffff" d="M 175.28125 169.710938 L 175.28125 168.480469 L 177.390625 168.480469 L 177.390625 166.363281 L 178.613281 166.363281 L 178.613281 168.480469 L 180.722656 168.480469 L 180.722656 169.710938 L 178.613281 169.710938 L 178.613281 171.867188 L 177.390625 171.867188 L 177.390625 169.710938 Z M 175.28125 169.710938 " fill-opacity="1" fill-rule="nonzero"/><path fill="#ffffff" d="M 181.507812 169.710938 L 181.507812 168.480469 L 183.617188 168.480469 L 183.617188 166.363281 L 184.839844 166.363281 L 184.839844 168.480469 L 186.949219 168.480469 L 186.949219 169.710938 L 184.839844 169.710938 L 184.839844 171.867188 L 183.617188 171.867188 L 183.617188 169.710938 Z M 181.507812 169.710938 " fill-opacity="1" fill-rule="nonzero"/><g clip-path="url(#faf364b8fd)"><path fill="#dbcb42" d="M 159.269531 200.847656 L 126.78125 200.847656 C 125.84375 200.847656 125.085938 200.089844 125.085938 199.152344 L 125.085938 187.019531 C 125.085938 186.085938 125.84375 185.328125 126.78125 185.328125 L 159.269531 185.328125 C 160.203125 185.328125 160.960938 186.085938 160.960938 187.019531 L 160.960938 199.152344 C 160.960938 200.089844 160.203125 200.847656 159.269531 200.847656 Z M 159.269531 200.847656 " fill-opacity="1" fill-rule="nonzero"/></g><g clip-path="url(#dd14a4caf3)"><path fill="#262525" d="M 159.269531 200.996094 L 126.78125 200.996094 C 125.765625 200.996094 124.9375 200.167969 124.9375 199.152344 L 124.9375 187.019531 C 124.9375 186.003906 125.765625 185.179688 126.78125 185.179688 L 159.269531 185.179688 C 160.285156 185.179688 161.109375 186.003906 161.109375 187.019531 L 161.109375 199.152344 C 161.109375 200.167969 160.285156 200.996094 159.269531 200.996094 Z M 126.78125 185.472656 C 125.929688 185.472656 125.234375 186.167969 125.234375 187.019531 L 125.234375 199.152344 C 125.234375 200.003906 125.929688 200.699219 126.78125 200.699219 L 159.269531 200.699219 C 160.121094 200.699219 160.8125 200.003906 160.8125 199.152344 L 160.8125 187.019531 C 160.8125 186.167969 160.121094 185.472656 159.269531 185.472656 Z M 126.78125 185.472656 " fill-opacity="1" fill-rule="nonzero"/></g><path fill="#ffffff" d="M 131.449219 198.515625 L 131.449219 187.5 L 133.175781 187.5 L 133.175781 192.226562 L 135.144531 192.226562 L 135.144531 187.5 L 136.871094 187.5 L 136.871094 198.515625 L 135.144531 198.515625 L 135.144531 193.800781 L 133.175781 193.800781 L 133.175781 198.515625 Z M 131.449219 198.515625 " fill-opacity="1" fill-rule="nonzero"/><path fill="#ffffff" d="M 137.652344 189.078125 L 137.652344 187.5 L 143.007812 187.5 L 143.007812 189.078125 L 141.195312 189.078125 L 141.195312 198.515625 L 139.464844 198.515625 L 139.464844 189.078125 Z M 137.652344 189.078125 " fill-opacity="1" fill-rule="nonzero"/><path fill="#ffffff" d="M 143.742188 198.515625 L 143.742188 187.5 L 146.144531 187.5 L 147.421875 195.347656 L 148.609375 187.5 L 151.097656 187.5 L 151.097656 198.515625 L 149.371094 198.515625 L 149.371094 190.621094 L 148.175781 198.515625 L 146.539062 198.515625 L 145.246094 190.746094 L 145.246094 198.515625 Z M 143.742188 198.515625 " fill-opacity="1" fill-rule="nonzero"/><path fill="#ffffff" d="M 152.257812 198.515625 L 152.257812 187.5 L 153.984375 187.5 L 153.984375 196.941406 L 156.835938 196.941406 L 156.835938 198.515625 Z M 152.257812 198.515625 " fill-opacity="1" fill-rule="nonzero"/><g clip-path="url(#dbb75501cd)"><path fill="#2855e0" d="M 190.554688 200.847656 L 172.976562 200.847656 C 172.042969 200.847656 171.285156 200.089844 171.285156 199.152344 L 171.285156 187.019531 C 171.285156 186.085938 172.042969 185.328125 172.976562 185.328125 L 190.554688 185.328125 C 191.488281 185.328125 192.246094 186.085938 192.246094 187.019531 L 192.246094 199.152344 C 192.246094 200.089844 191.488281 200.847656 190.554688 200.847656 Z M 190.554688 200.847656 " fill-opacity="1" fill-rule="nonzero"/><path fill="#262525" d="M 190.554688 200.996094 L 172.976562 200.996094 C 171.960938 200.996094 171.136719 200.167969 171.136719 199.152344 L 171.136719 187.019531 C 171.136719 186.003906 171.960938 185.179688 172.976562 185.179688 L 190.554688 185.179688 C 191.570312 185.179688 192.394531 186.003906 192.394531 187.019531 L 192.394531 199.152344 C 192.394531 200.167969 191.570312 200.996094 190.554688 200.996094 Z M 172.976562 185.472656 C 172.125 185.472656 171.433594 186.167969 171.433594 187.019531 L 171.433594 199.152344 C 171.433594 200.003906 172.125 200.699219 172.976562 200.699219 L 190.554688 200.699219 C 191.40625 200.699219 192.097656 200.003906 192.097656 199.152344 L 192.097656 187.019531 C 192.097656 186.167969 191.40625 185.472656 190.554688 185.472656 Z M 172.976562 185.472656 " fill-opacity="1" fill-rule="nonzero"/></g><path fill="#ffffff" d="M 176.960938 198.554688 L 176.960938 196.980469 C 177.089844 196.992188 177.292969 196.996094 177.5625 196.996094 C 177.878906 196.996094 178.121094 196.921875 178.296875 196.765625 C 178.472656 196.613281 178.558594 196.339844 178.558594 195.945312 L 178.558594 187.542969 L 180.289062 187.542969 L 180.289062 195.820312 C 180.289062 197.664062 179.457031 198.585938 177.800781 198.585938 C 177.429688 198.585938 177.152344 198.578125 176.960938 198.554688 Z M 176.960938 198.554688 " fill-opacity="1" fill-rule="nonzero"/><path fill="#ffffff" d="M 181.199219 195.914062 L 181.199219 195.238281 L 182.976562 195.238281 L 182.976562 196.023438 C 182.976562 196.738281 183.25 197.097656 183.804688 197.097656 C 184.355469 197.097656 184.632812 196.738281 184.632812 196.023438 C 184.632812 195.714844 184.570312 195.425781 184.449219 195.152344 C 184.324219 194.882812 184.167969 194.636719 183.972656 194.421875 C 183.78125 194.203125 183.566406 193.984375 183.328125 193.765625 C 183.09375 193.550781 182.851562 193.320312 182.601562 193.082031 C 182.355469 192.847656 182.132812 192.59375 181.929688 192.328125 C 181.730469 192.0625 181.566406 191.742188 181.4375 191.375 C 181.3125 191.007812 181.246094 190.609375 181.246094 190.183594 C 181.246094 189.296875 181.480469 188.617188 181.953125 188.136719 C 182.421875 187.660156 183.054688 187.417969 183.851562 187.417969 C 184.648438 187.417969 185.265625 187.660156 185.695312 188.136719 C 186.128906 188.617188 186.34375 189.296875 186.34375 190.183594 L 186.34375 190.539062 L 184.710938 190.539062 L 184.710938 190.078125 C 184.710938 189.355469 184.417969 188.992188 183.839844 188.992188 C 183.550781 188.992188 183.335938 189.078125 183.191406 189.25 C 183.046875 189.421875 182.972656 189.699219 182.972656 190.078125 C 182.972656 190.382812 183.039062 190.671875 183.164062 190.945312 C 183.289062 191.214844 183.453125 191.460938 183.648438 191.679688 C 183.847656 191.894531 184.066406 192.113281 184.308594 192.332031 C 184.550781 192.550781 184.792969 192.777344 185.03125 193.015625 C 185.273438 193.253906 185.492188 193.503906 185.6875 193.769531 C 185.886719 194.039062 186.046875 194.355469 186.171875 194.722656 C 186.296875 195.09375 186.359375 195.488281 186.359375 195.914062 C 186.359375 196.800781 186.140625 197.484375 185.699219 197.960938 C 185.261719 198.441406 184.640625 198.679688 183.835938 198.679688 C 183.035156 198.679688 182.394531 198.441406 181.917969 197.960938 C 181.4375 197.484375 181.199219 196.800781 181.199219 195.914062 Z M 181.199219 195.914062 " fill-opacity="1" fill-rule="nonzero"/><g clip-path="url(#4722a4edea)"><path fill="#2855e0" d="M 152.289062 177.210938 L 126.78125 177.210938 C 125.84375 177.210938 125.085938 176.453125 125.085938 175.519531 L 125.085938 163.382812 C 125.085938 162.449219 125.84375 161.691406 126.78125 161.691406 L 152.289062 161.691406 C 153.222656 161.691406 153.980469 162.449219 153.980469 163.382812 L 153.980469 175.519531 C 153.980469 176.453125 153.222656 177.210938 152.289062 177.210938 Z M 152.289062 177.210938 " fill-opacity="1" fill-rule="nonzero"/></g><g clip-path="url(#ad877bbc99)"><path fill="#262525" d="M 152.289062 177.359375 L 126.78125 177.359375 C 125.765625 177.359375 124.9375 176.535156 124.9375 175.519531 L 124.9375 163.382812 C 124.9375 162.367188 125.765625 161.542969 126.78125 161.542969 L 152.289062 161.542969 C 153.304688 161.542969 154.128906 162.367188 154.128906 163.382812 L 154.128906 175.519531 C 154.128906 176.535156 153.304688 177.359375 152.289062 177.359375 Z M 126.78125 161.839844 C 125.929688 161.839844 125.234375 162.53125 125.234375 163.382812 L 125.234375 175.519531 C 125.234375 176.371094 125.929688 177.0625 126.78125 177.0625 L 152.289062 177.0625 C 153.140625 177.0625 153.832031 176.371094 153.832031 175.519531 L 153.832031 163.382812 C 153.832031 162.53125 153.140625 161.839844 152.289062 161.839844 Z M 126.78125 161.839844 " fill-opacity="1" fill-rule="nonzero"/></g><path fill="#ffffff" d="M 131.1875 174.878906 L 131.1875 163.867188 L 133.730469 163.867188 C 134.585938 163.867188 135.226562 164.097656 135.660156 164.566406 C 136.09375 165.03125 136.308594 165.707031 136.308594 166.59375 L 136.308594 168.023438 C 136.308594 168.90625 136.09375 169.582031 135.660156 170.046875 C 135.230469 170.507812 134.585938 170.742188 133.734375 170.742188 L 132.914062 170.742188 L 132.914062 174.878906 Z M 132.914062 169.171875 L 133.734375 169.171875 C 134.023438 169.171875 134.234375 169.09375 134.375 168.9375 C 134.511719 168.777344 134.582031 168.507812 134.582031 168.128906 L 134.582031 166.476562 C 134.582031 166.097656 134.511719 165.832031 134.375 165.675781 C 134.234375 165.519531 134.023438 165.441406 133.734375 165.441406 L 132.914062 165.441406 Z M 132.914062 169.171875 " fill-opacity="1" fill-rule="nonzero"/><path fill="#ffffff" d="M 137.191406 174.878906 L 137.191406 163.867188 L 138.917969 163.867188 L 138.917969 168.589844 L 140.882812 168.589844 L 140.882812 163.867188 L 142.613281 163.867188 L 142.613281 174.878906 L 140.882812 174.878906 L 140.882812 170.164062 L 138.917969 170.164062 L 138.917969 174.878906 Z M 137.191406 174.878906 " fill-opacity="1" fill-rule="nonzero"/><path fill="#ffffff" d="M 143.902344 174.878906 L 143.902344 163.867188 L 146.449219 163.867188 C 147.300781 163.867188 147.945312 164.097656 148.375 164.566406 C 148.808594 165.03125 149.023438 165.707031 149.023438 166.59375 L 149.023438 168.023438 C 149.023438 168.90625 148.808594 169.582031 148.375 170.046875 C 147.945312 170.507812 147.300781 170.742188 146.449219 170.742188 L 145.628906 170.742188 L 145.628906 174.878906 Z M 145.628906 169.171875 L 146.453125 169.171875 C 146.738281 169.171875 146.949219 169.09375 147.089844 168.9375 C 147.226562 168.777344 147.296875 168.507812 147.296875 168.128906 L 147.296875 166.476562 C 147.296875 166.097656 147.226562 165.832031 147.089844 165.675781 C 146.949219 165.519531 146.738281 165.441406 146.453125 165.441406 L 145.628906 165.441406 Z M 145.628906 169.171875 " fill-opacity="1" fill-rule="nonzero"/></svg>